<svg width="336" height="86" viewBox="0 0 336 86" fill="none" xmlns="http://www.w3.org/2000/svg">
<path fill-rule="evenodd" clip-rule="evenodd" d="M43.8801 0.249634C67.5987 0.284019 86.8154 19.2992 86.8157 42.7502C86.8157 66.1983 67.604 85.2102 43.8897 85.2496C43.7415 85.2494 43.5936 85.2454 43.4458 85.2437C43.4104 85.2443 43.375 85.2445 43.3396 85.2449C41.663 85.2269 40.0095 85.1174 38.3841 84.915C38.1317 84.8776 37.8804 84.8366 37.63 84.7931C18.175 81.963 2.9743 66.2721 1.14142 46.7285C1.09989 46.7765 1.0587 46.8247 1.01733 46.8728C0.885232 45.5163 0.815674 44.1409 0.815674 42.7502C0.815689 41.4191 0.880661 40.1026 1.00182 38.8027C1.043 38.8506 1.08337 38.8992 1.12472 38.947C2.88409 19.3327 18.1166 3.5614 37.6038 0.710851C37.8628 0.66566 38.123 0.624193 38.3841 0.585495C40.0268 0.380863 41.6983 0.270486 43.3933 0.254364C43.408 0.254571 43.4227 0.25532 43.4374 0.255547C43.5848 0.253834 43.7324 0.249877 43.8801 0.249634ZM15.3348 54.1175C15.3247 54.4194 15.3192 54.7226 15.3192 55.0269C15.3192 68.4291 25.1482 79.6132 38.0524 81.9064C39.8135 82.1644 41.6113 82.3081 43.4386 82.331C58.4456 82.0726 70.5831 69.9198 70.5831 55.0269C70.5831 55.0233 70.5819 55.0198 70.5819 55.0162C62.5448 59.0584 53.4496 61.3396 43.8157 61.3396C33.4898 61.3396 23.7831 58.7185 15.3348 54.1175ZM83.8815 45.864C80.717 48.7492 77.2336 51.2963 73.4886 53.4493C73.5158 53.9718 73.5304 54.4977 73.5304 55.0269C73.5304 63.7477 69.7871 71.6072 63.8045 77.1251C75.0047 70.7832 82.8236 59.2497 83.8815 45.864ZM4.04929 46.1408C4.99867 57.1596 10.5299 66.9025 18.7497 73.4969C14.7519 68.3882 12.3708 61.9813 12.3708 55.0269C12.3708 54.1617 12.4096 53.3051 12.4818 52.4583C9.48015 50.5997 6.65712 48.4857 4.04929 46.1408ZM42.9506 27.7157C32.1837 27.7158 22.8322 33.8419 18.2748 42.7502C22.8321 51.6589 32.1835 57.7846 42.9506 57.7847C53.7178 57.7847 63.069 51.6589 67.6263 42.7502C63.0689 33.842 53.7175 27.7157 42.9506 27.7157ZM69.0868 46.1668C66.4731 50.4086 62.8314 53.963 58.5054 56.4957C62.6781 55.3772 66.6594 53.7966 70.3886 51.809C70.1557 49.8585 69.7149 47.9705 69.0868 46.1668ZM16.8131 46.1656C16.2814 47.6926 15.8829 49.2802 15.6319 50.915C18.836 52.7597 22.2387 54.303 25.8029 55.4987C22.1729 53.0632 19.0997 49.8769 16.8131 46.1656ZM73.1163 35.4393C72.6878 37.9991 71.9346 40.4501 70.8981 42.7502C71.9584 45.1031 72.7231 47.6138 73.1462 50.2373C76.6295 48.1207 79.8619 45.6394 82.7898 42.8472C79.8536 40.0471 76.611 37.5598 73.1163 35.4393ZM12.9638 36.4162C10.0569 38.3119 7.33738 40.4659 4.8404 42.8472C7.32789 45.2196 10.036 47.3664 12.9304 49.2569C13.3748 46.9875 14.0745 44.8082 15.0018 42.7502C14.0981 40.7444 13.4095 38.6236 12.9638 36.4162ZM63.8045 8.37534C69.7873 13.8933 73.5304 21.7537 73.5304 30.4747C73.5304 31.0667 73.5107 31.6545 73.4767 32.238C77.2323 34.396 80.725 36.9506 83.8971 39.8446C82.9039 26.3706 75.0627 14.7499 63.8045 8.37534ZM18.7342 12.0225C10.4731 18.6587 4.92682 28.4764 4.0302 39.5714C6.64814 37.2153 9.48336 35.0922 12.4985 33.2267C12.4156 32.3202 12.3708 31.4024 12.3708 30.4747C12.3708 23.5288 14.7452 17.1281 18.7342 12.0225ZM25.2265 30.3967C21.8827 31.559 18.6824 33.0243 15.6605 34.7617C15.9127 36.3343 16.3006 37.8628 16.8131 39.3348C18.9778 35.8215 21.8469 32.7775 25.2265 30.3967ZM59.0901 29.3548C63.1599 31.8605 66.5916 35.2843 69.0868 39.3337C69.6952 37.5864 70.1301 35.7604 70.3684 33.8747C66.8193 31.985 63.043 30.4601 59.0901 29.3548ZM43.4386 3.16949C41.6075 3.19242 39.8055 3.33579 38.0405 3.59523C25.1291 5.89108 15.3192 17.0749 15.3192 30.4747C15.3192 30.8423 15.3273 31.2081 15.3419 31.5722C23.7884 26.9739 33.493 24.3559 43.8157 24.3559C53.4485 24.3559 62.5432 26.6357 70.5796 30.677C70.5801 30.6096 70.5831 30.5422 70.5831 30.4747C70.5831 15.5818 58.4456 3.42781 43.4386 3.16949Z" fill="#0FB8AC"/>
<path d="M266.4 7.71252C269.494 7.71252 272.391 8.2875 275.089 9.43811C277.787 10.5491 280.148 12.1366 282.171 14.1998C284.195 16.2233 285.782 18.6236 286.933 21.401C288.083 24.1783 288.658 27.2333 288.658 30.566C288.658 33.8987 288.083 36.9737 286.933 39.7906C285.782 42.568 284.195 44.9882 282.171 47.0514C280.148 49.0749 277.787 50.6625 275.089 51.8131C272.391 52.9241 269.494 53.4791 266.4 53.4791C263.305 53.4791 260.408 52.924 257.71 51.8131C255.012 50.6625 252.652 49.0748 250.628 47.0514C248.605 44.9883 247.018 42.5679 245.867 39.7906C244.717 36.9737 244.141 33.8988 244.141 30.566C244.141 27.2333 244.717 24.1783 245.867 21.401C247.018 18.5841 248.605 16.1637 250.628 14.1403C252.652 12.0772 255.012 10.4895 257.71 9.37854C260.408 8.26762 263.305 7.71255 266.4 7.71252ZM310.973 7.71252C313.631 7.71256 316.012 8.20798 318.115 9.19983C320.257 10.1521 322.062 11.4223 323.531 13.0094C325.038 14.5964 326.11 16.3821 326.744 18.3658L322.34 20.0914C321.428 17.5125 319.979 15.5687 317.995 14.2594C316.012 12.9104 313.691 12.236 311.032 12.236C309.326 12.236 307.838 12.5334 306.569 13.1285C305.299 13.684 304.307 14.5168 303.593 15.6276C302.919 16.6988 302.581 17.9691 302.581 19.4371C302.581 21.2224 303.136 22.8292 304.247 24.2574C305.358 25.6461 307.084 26.6777 309.425 27.3522L316.507 29.4948C320.038 30.5263 322.677 32.0344 324.423 34.0182C326.208 35.9623 327.101 38.4025 327.101 41.3385C327.101 43.7191 326.486 45.822 325.256 47.6471C324.066 49.4722 322.38 50.9007 320.198 51.9323C318.015 52.9638 315.516 53.4791 312.698 53.4791C309.881 53.4791 307.322 52.9439 305.021 51.8727C302.72 50.8014 300.756 49.3729 299.129 47.5875C297.542 45.7625 296.411 43.739 295.737 41.5172L300.2 39.8502C301.232 42.8259 302.839 45.088 305.021 46.6354C307.203 48.1828 309.782 48.9567 312.758 48.9567C314.623 48.9567 316.249 48.6582 317.638 48.0631C319.066 47.468 320.158 46.6353 320.911 45.5641C321.705 44.4531 322.102 43.1829 322.102 41.7545C322.102 39.6519 321.527 38.0252 320.376 36.8746C319.226 35.6844 317.559 34.7722 315.377 34.1373L307.342 31.7565C304.208 30.8439 301.787 29.316 300.081 27.1735C298.375 25.031 297.522 22.5709 297.522 19.7936C297.522 17.4528 298.098 15.3696 299.248 13.5446C300.439 11.7196 302.045 10.2909 304.069 9.2594C306.092 8.2278 308.394 7.71252 310.973 7.71252ZM118.692 32.2526L139.581 8.42639H145.89L129.509 27.0924L146.902 52.7653H140.891L126.012 31.1022L118.692 39.4342V52.7653H113.692V8.42639H118.692V32.2526ZM186.018 52.7653H180.721L176.972 42.0533H157.331L153.523 52.7653H148.226L164.355 8.42639H169.889L186.018 52.7653ZM196.864 52.7653H191.864V8.42639H196.864V52.7653ZM222.503 8.42639C225.439 8.42643 227.998 9.00246 230.18 10.153C232.362 11.2639 234.069 12.8505 235.299 14.9137C236.529 16.9372 237.144 19.3186 237.144 22.0563C237.144 25.1509 236.33 27.8091 234.703 30.0309C233.077 32.2527 230.854 33.8195 228.037 34.7321L238.394 52.7653H232.501L222.781 35.566H212.207V52.7653H207.207V8.42639H222.503ZM266.4 12.4137C263.86 12.4137 261.54 12.8902 259.437 13.8424C257.334 14.755 255.509 16.0641 253.961 17.7701C252.453 19.4366 251.263 21.3813 250.39 23.6031C249.557 25.7852 249.141 28.1063 249.141 30.566C249.141 33.0655 249.557 35.4263 250.39 37.6481C251.263 39.8303 252.453 41.775 253.961 43.4811C255.509 45.1475 257.334 46.4566 259.437 47.4088C261.579 48.3213 263.9 48.7779 266.4 48.778C268.939 48.778 271.261 48.3214 273.364 47.4088C275.466 46.4566 277.271 45.1473 278.779 43.4811C280.326 41.775 281.517 39.8303 282.35 37.6481C283.223 35.4263 283.659 33.0656 283.659 30.566C283.659 28.1062 283.223 25.7853 282.35 23.6031C281.517 21.3813 280.326 19.4366 278.779 17.7701C277.271 16.0643 275.466 14.7549 273.364 13.8424C271.261 12.8902 268.939 12.4137 266.4 12.4137ZM158.939 37.3512H175.245L167.118 14.2799L158.939 37.3512ZM212.207 30.8639H222.741C224.606 30.8638 226.233 30.5067 227.621 29.7926C229.05 29.0784 230.141 28.0667 230.895 26.7574C231.688 25.4086 232.085 23.8216 232.085 21.9967C232.085 20.1716 231.688 18.6039 230.895 17.2946C230.141 15.9456 229.05 14.914 227.621 14.1998C226.233 13.4857 224.606 13.1286 222.741 13.1285H212.207V30.8639Z" fill="#7A6C53"/>
<path d="M332.511 81.2495C331.931 81.2495 331.489 81.1162 331.185 80.8495C330.895 80.5695 330.75 80.1762 330.75 79.6695V72.6695H327.424V71.5096H330.75V67.9096H332.163V71.5096H335.816V72.6695H332.163V79.5095C332.163 79.9095 332.381 80.1095 332.815 80.1095H335.272V81.2495H332.511Z" fill="#C8B493"/>
<path d="M316.819 81.2495V71.5095H318.167V73.2895H318.449C318.696 72.7695 319.109 72.3095 319.688 71.9095C320.283 71.5095 321.138 71.3095 322.254 71.3095C323.037 71.3095 323.747 71.4628 324.384 71.7695C325.022 72.0628 325.53 72.5095 325.906 73.1095C326.283 73.6962 326.472 74.4361 326.472 75.3295V81.2495H325.08V75.4095C325.08 74.3695 324.798 73.6228 324.232 73.1695C323.667 72.7028 322.906 72.4695 321.949 72.4695C320.877 72.4695 319.986 72.7962 319.275 73.4495C318.565 74.1028 318.21 75.0761 318.21 76.3695V81.2495H316.819Z" fill="#C8B493"/>
<path d="M309.887 81.5296C308.8 81.5296 307.85 81.323 307.039 80.9096C306.242 80.483 305.618 79.8896 305.169 79.1297C304.72 78.3697 304.495 77.4963 304.495 76.5097V76.2697C304.495 75.2563 304.72 74.3763 305.169 73.6297C305.618 72.8697 306.234 72.283 307.017 71.8697C307.814 71.443 308.72 71.2297 309.735 71.2297C310.735 71.2297 311.612 71.423 312.365 71.8097C313.133 72.1963 313.735 72.7497 314.17 73.4697C314.605 74.1763 314.822 75.0297 314.822 76.0297V76.6697H305.886C305.93 77.8563 306.321 78.7697 307.06 79.4097C307.814 80.0497 308.756 80.3696 309.887 80.3696C310.858 80.3696 311.604 80.1696 312.126 79.7697C312.662 79.3563 313.075 78.8563 313.365 78.2697L314.605 78.7897C314.387 79.2297 314.083 79.663 313.691 80.0897C313.315 80.503 312.822 80.8496 312.213 81.1296C311.604 81.3963 310.829 81.5296 309.887 81.5296ZM305.908 75.5697H313.387C313.329 74.5563 312.967 73.7763 312.3 73.2297C311.633 72.6697 310.778 72.3897 309.735 72.3897C308.706 72.3897 307.85 72.6697 307.169 73.2297C306.488 73.7763 306.068 74.5563 305.908 75.5697Z" fill="#C8B493"/>
<path d="M287.461 81.2495V71.5095H288.809V72.7895H289.092C289.309 72.4295 289.65 72.0962 290.114 71.7895C290.592 71.4695 291.266 71.3095 292.136 71.3095C292.991 71.3095 293.679 71.4895 294.201 71.8495C294.723 72.2095 295.1 72.6362 295.332 73.1295H295.614C295.861 72.6362 296.237 72.2095 296.745 71.8495C297.266 71.4895 297.998 71.3095 298.941 71.3095C299.651 71.3095 300.274 71.4495 300.81 71.7295C301.347 71.9962 301.767 72.3762 302.071 72.8695C302.39 73.3628 302.55 73.9361 302.55 74.5895V81.2495H301.136V74.7295C301.136 74.0362 300.912 73.4895 300.462 73.0895C300.013 72.6762 299.39 72.4695 298.593 72.4695C297.767 72.4695 297.078 72.7162 296.527 73.2095C295.977 73.7028 295.701 74.4161 295.701 75.3495V81.2495H294.288V74.7295C294.288 74.0362 294.063 73.4895 293.614 73.0895C293.179 72.6762 292.556 72.4695 291.744 72.4695C290.918 72.4695 290.23 72.7162 289.679 73.2095C289.128 73.7028 288.853 74.4161 288.853 75.3495V81.2495H287.461Z" fill="#C8B493"/>
<path d="M280.019 81.5296C278.947 81.5296 278.005 81.323 277.193 80.9096C276.381 80.483 275.751 79.8963 275.302 79.1497C274.867 78.3897 274.649 77.5097 274.649 76.5097V76.2697C274.649 75.2563 274.867 74.3763 275.302 73.6297C275.751 72.8697 276.381 72.283 277.193 71.8697C278.005 71.443 278.947 71.2297 280.019 71.2297C281.092 71.2297 282.027 71.443 282.824 71.8697C283.636 72.283 284.266 72.8697 284.715 73.6297C285.165 74.3763 285.389 75.2563 285.389 76.2697V76.5097C285.389 77.5097 285.165 78.3897 284.715 79.1497C284.266 79.8963 283.636 80.483 282.824 80.9096C282.027 81.323 281.092 81.5296 280.019 81.5296ZM280.019 80.3696C281.237 80.3696 282.201 80.0163 282.911 79.3097C283.621 78.5897 283.976 77.643 283.976 76.4697V76.3097C283.976 75.123 283.621 74.1763 282.911 73.4697C282.201 72.7497 281.237 72.3897 280.019 72.3897C278.816 72.3897 277.853 72.7497 277.128 73.4697C276.403 74.1763 276.041 75.123 276.041 76.3097V76.4697C276.041 77.643 276.403 78.5897 277.128 79.3097C277.853 80.0163 278.816 80.3696 280.019 80.3696Z" fill="#C8B493"/>
<path d="M257.593 81.2496V67.2496H260.485L264.964 80.4096H265.224L269.703 67.2496H272.595V81.2496H271.138V68.0896H270.877L266.399 81.2496H263.768L259.311 68.0896H259.028V81.2496H257.593Z" fill="#C8B493"/>
<path d="M247.105 81.5296C245.815 81.5296 244.713 81.2496 243.8 80.6896C242.901 80.1296 242.351 79.2097 242.148 77.9297L243.517 77.6897C243.633 78.383 243.865 78.9297 244.213 79.3297C244.561 79.7163 244.981 79.9963 245.474 80.1696C245.981 80.343 246.525 80.4296 247.105 80.4296C247.96 80.4296 248.641 80.2697 249.148 79.9497C249.656 79.6297 249.909 79.1897 249.909 78.6297C249.909 78.0697 249.663 77.6763 249.17 77.4497C248.692 77.223 248.047 77.0497 247.235 76.9297L246.278 76.7697C245.597 76.663 244.981 76.4963 244.43 76.2697C243.894 76.043 243.467 75.743 243.148 75.3697C242.843 74.9963 242.691 74.5297 242.691 73.9697C242.691 73.1163 243.046 72.4497 243.756 71.9697C244.481 71.4763 245.445 71.2297 246.648 71.2297C247.851 71.2297 248.815 71.483 249.54 71.9897C250.279 72.483 250.75 73.1963 250.953 74.1297L249.627 74.4097C249.496 73.663 249.163 73.1363 248.626 72.8297C248.09 72.5097 247.431 72.3497 246.648 72.3497C245.865 72.3497 245.242 72.483 244.778 72.7497C244.314 73.0163 244.083 73.4163 244.083 73.9497C244.083 74.4697 244.293 74.8497 244.713 75.0897C245.148 75.3297 245.728 75.5097 246.452 75.6297L247.431 75.7897C248.17 75.8963 248.829 76.0563 249.409 76.2697C249.989 76.4697 250.453 76.7563 250.801 77.1297C251.148 77.503 251.322 78.003 251.322 78.6297C251.322 79.5496 250.938 80.263 250.17 80.7696C249.416 81.2763 248.395 81.5296 247.105 81.5296Z" fill="#C8B493"/>
<path d="M234.832 81.4495C234.064 81.4495 233.361 81.3028 232.723 81.0095C232.085 80.7028 231.571 80.2561 231.18 79.6695C230.803 79.0695 230.614 78.3228 230.614 77.4295V71.5095H232.028V77.3495C232.028 78.3761 232.31 79.1228 232.875 79.5895C233.441 80.0561 234.202 80.2895 235.158 80.2895C236.231 80.2895 237.115 79.9695 237.811 79.3295C238.521 78.6761 238.876 77.6961 238.876 76.3895V71.5095H240.289V81.2495H238.919V79.4895H238.659C238.398 79.9961 237.97 80.4495 237.376 80.8495C236.796 81.2495 235.948 81.4495 234.832 81.4495Z" fill="#C8B493"/>
<path d="M223.325 81.5296C222.252 81.5296 221.31 81.323 220.498 80.9096C219.687 80.483 219.056 79.8963 218.607 79.1497C218.172 78.3897 217.955 77.5097 217.955 76.5097V76.2697C217.955 75.2563 218.172 74.3763 218.607 73.6297C219.056 72.8697 219.687 72.283 220.498 71.8697C221.31 71.443 222.252 71.2297 223.325 71.2297C224.397 71.2297 225.332 71.443 226.129 71.8697C226.941 72.283 227.571 72.8697 228.021 73.6297C228.47 74.3763 228.695 75.2563 228.695 76.2697V76.5097C228.695 77.5097 228.47 78.3897 228.021 79.1497C227.571 79.8963 226.941 80.483 226.129 80.9096C225.332 81.323 224.397 81.5296 223.325 81.5296ZM223.325 80.3696C224.542 80.3696 225.506 80.0163 226.216 79.3097C226.926 78.5897 227.282 77.643 227.282 76.4697V76.3097C227.282 75.123 226.926 74.1763 226.216 73.4697C225.506 72.7497 224.542 72.3897 223.325 72.3897C222.122 72.3897 221.158 72.7497 220.433 73.4697C219.708 74.1763 219.346 75.123 219.346 76.3097V76.4697C219.346 77.643 219.708 78.5897 220.433 79.3097C221.158 80.0163 222.122 80.3696 223.325 80.3696Z" fill="#C8B493"/>
<path d="M214.467 81.2495V71.5095H215.858V81.2495H214.467ZM215.162 69.8695C214.829 69.8695 214.546 69.7695 214.314 69.5695C214.097 69.3562 213.988 69.0962 213.988 68.7896C213.988 68.4696 214.097 68.2096 214.314 68.0096C214.546 67.8096 214.829 67.7096 215.162 67.7096C215.496 67.7096 215.771 67.8096 215.988 68.0096C216.22 68.2096 216.336 68.4696 216.336 68.7896C216.336 69.0962 216.22 69.3562 215.988 69.5695C215.771 69.7695 215.496 69.8695 215.162 69.8695Z" fill="#C8B493"/>
<path d="M207.407 81.5296C206.363 81.5296 205.436 81.3296 204.624 80.9296C203.827 80.5163 203.196 79.9297 202.733 79.1697C202.269 78.4097 202.037 77.5163 202.037 76.4897V76.2897C202.037 75.2363 202.269 74.3363 202.733 73.5897C203.196 72.8297 203.827 72.2497 204.624 71.8497C205.436 71.4363 206.363 71.2297 207.407 71.2297C208.421 71.2297 209.277 71.4097 209.972 71.7697C210.683 72.1163 211.233 72.5763 211.625 73.1497C212.031 73.7097 212.291 74.3097 212.407 74.9497L211.016 75.2097C210.943 74.6897 210.762 74.223 210.472 73.8097C210.197 73.383 209.806 73.043 209.298 72.7897C208.791 72.523 208.161 72.3897 207.407 72.3897C206.653 72.3897 205.972 72.5497 205.363 72.8697C204.769 73.1897 204.298 73.643 203.95 74.2297C203.602 74.8163 203.428 75.5097 203.428 76.3097V76.4697C203.428 77.2697 203.602 77.963 203.95 78.5497C204.298 79.123 204.769 79.5696 205.363 79.8896C205.972 80.2096 206.653 80.3696 207.407 80.3696C208.537 80.3696 209.4 80.103 209.994 79.5696C210.588 79.023 210.958 78.3497 211.103 77.5497L212.494 77.8297C212.349 78.4563 212.067 79.0563 211.646 79.6297C211.241 80.1897 210.683 80.6496 209.972 81.0096C209.277 81.3563 208.421 81.5296 207.407 81.5296Z" fill="#C8B493"/>
<path d="M198.549 81.2495V71.5095H199.94V81.2495H198.549ZM199.245 69.8695C198.911 69.8695 198.629 69.7695 198.397 69.5695C198.179 69.3562 198.071 69.0962 198.071 68.7896C198.071 68.4696 198.179 68.2096 198.397 68.0096C198.629 67.8096 198.911 67.7096 199.245 67.7096C199.578 67.7096 199.853 67.8096 200.071 68.0096C200.303 68.2096 200.419 68.4696 200.419 68.7896C200.419 69.0962 200.303 69.3562 200.071 69.5695C199.853 69.7695 199.578 69.8695 199.245 69.8695Z" fill="#C8B493"/>
<path d="M185.707 85.2496V71.5097H187.055V73.2497H187.337C187.627 72.7297 188.091 72.263 188.729 71.8497C189.366 71.4363 190.258 71.2297 191.403 71.2297C192.345 71.2297 193.2 71.4363 193.968 71.8497C194.736 72.2497 195.345 72.823 195.795 73.5697C196.258 74.3163 196.49 75.2163 196.49 76.2697V76.5097C196.49 77.5363 196.266 78.4297 195.816 79.1897C195.367 79.9363 194.758 80.5163 193.99 80.9296C193.222 81.3296 192.359 81.5296 191.403 81.5296C190.649 81.5296 190.004 81.4363 189.468 81.2496C188.932 81.063 188.497 80.8163 188.163 80.5096C187.83 80.203 187.569 79.8963 187.381 79.5897H187.098V85.2496H185.707ZM191.077 80.3696C192.251 80.3696 193.2 80.023 193.925 79.3297C194.664 78.6363 195.034 77.683 195.034 76.4697V76.3097C195.034 75.083 194.664 74.123 193.925 73.4297C193.2 72.7363 192.251 72.3897 191.077 72.3897C189.903 72.3897 188.946 72.7363 188.207 73.4297C187.468 74.123 187.098 75.083 187.098 76.3097V76.4697C187.098 77.683 187.468 78.6363 188.207 79.3297C188.946 80.023 189.903 80.3696 191.077 80.3696Z" fill="#C8B493"/>
<path d="M179.609 81.5296C178.319 81.5296 177.217 81.2496 176.304 80.6896C175.406 80.1296 174.855 79.2097 174.652 77.9297L176.022 77.6897C176.138 78.383 176.369 78.9297 176.717 79.3297C177.065 79.7163 177.485 79.9963 177.978 80.1696C178.486 80.343 179.029 80.4296 179.609 80.4296C180.464 80.4296 181.145 80.2697 181.653 79.9497C182.16 79.6297 182.413 79.1897 182.413 78.6297C182.413 78.0697 182.167 77.6763 181.674 77.4497C181.196 77.223 180.551 77.0497 179.739 76.9297L178.783 76.7697C178.101 76.663 177.485 76.4963 176.935 76.2697C176.398 76.043 175.971 75.743 175.652 75.3697C175.348 74.9963 175.195 74.5297 175.195 73.9697C175.195 73.1163 175.551 72.4497 176.261 71.9697C176.985 71.4763 177.949 71.2297 179.152 71.2297C180.355 71.2297 181.319 71.483 182.044 71.9897C182.783 72.483 183.254 73.1963 183.457 74.1297L182.131 74.4097C182 73.663 181.667 73.1363 181.131 72.8297C180.594 72.5097 179.935 72.3497 179.152 72.3497C178.37 72.3497 177.746 72.483 177.283 72.7497C176.819 73.0163 176.587 73.4163 176.587 73.9497C176.587 74.4697 176.797 74.8497 177.217 75.0897C177.652 75.3297 178.232 75.5097 178.957 75.6297L179.935 75.7897C180.674 75.8963 181.334 76.0563 181.913 76.2697C182.493 76.4697 182.957 76.7563 183.305 77.1297C183.653 77.503 183.827 78.003 183.827 78.6297C183.827 79.5496 183.443 80.263 182.674 80.7696C181.921 81.2763 180.899 81.5296 179.609 81.5296Z" fill="#C8B493"/>
<path d="M167.336 81.4495C166.568 81.4495 165.865 81.3028 165.228 81.0095C164.59 80.7028 164.075 80.2561 163.684 79.6695C163.307 79.0695 163.119 78.3228 163.119 77.4295V71.5095H164.532V77.3495C164.532 78.3761 164.814 79.1228 165.38 79.5895C165.945 80.0561 166.706 80.2895 167.663 80.2895C168.735 80.2895 169.619 79.9695 170.315 79.3295C171.025 78.6761 171.38 77.6961 171.38 76.3895V71.5095H172.793V81.2495H171.424V79.4895H171.163C170.902 79.9961 170.474 80.4495 169.88 80.8495C169.3 81.2495 168.452 81.4495 167.336 81.4495Z" fill="#C8B493"/>
<path d="M149.485 81.2496L154.399 67.2496H157.051L161.965 81.2496H160.399L159.138 77.5696H152.333L151.051 81.2496H149.485ZM152.725 76.3296H158.725L155.855 68.0696H155.594L152.725 76.3296Z" fill="#C8B493"/>
<path d="M139.721 81.5296C138.634 81.5296 137.684 81.323 136.873 80.9096C136.075 80.483 135.452 79.8896 135.003 79.1297C134.553 78.3697 134.329 77.4963 134.329 76.5097V76.2697C134.329 75.2563 134.553 74.3763 135.003 73.6297C135.452 72.8697 136.068 72.283 136.851 71.8697C137.648 71.443 138.554 71.2297 139.568 71.2297C140.569 71.2297 141.445 71.423 142.199 71.8097C142.967 72.1963 143.569 72.7497 144.004 73.4697C144.438 74.1763 144.656 75.0297 144.656 76.0297V76.6697H135.72C135.764 77.8563 136.155 78.7697 136.894 79.4097C137.648 80.0497 138.59 80.3696 139.721 80.3696C140.692 80.3696 141.438 80.1696 141.96 79.7697C142.496 79.3563 142.909 78.8563 143.199 78.2697L144.438 78.7897C144.221 79.2297 143.917 79.663 143.525 80.0897C143.148 80.503 142.656 80.8496 142.047 81.1296C141.438 81.3963 140.663 81.5296 139.721 81.5296ZM135.742 75.5697H143.221C143.163 74.5563 142.801 73.7763 142.134 73.2297C141.467 72.6697 140.612 72.3897 139.568 72.3897C138.539 72.3897 137.684 72.6697 137.003 73.2297C136.322 73.7763 135.901 74.5563 135.742 75.5697Z" fill="#C8B493"/>
<path d="M122.709 81.2496V67.2496H124.101V73.1896H124.383C124.543 72.8696 124.775 72.5696 125.079 72.2896C125.398 72.0096 125.804 71.783 126.296 71.6096C126.789 71.423 127.405 71.3296 128.144 71.3296C128.927 71.3296 129.637 71.483 130.275 71.7896C130.913 72.083 131.42 72.523 131.797 73.1096C132.174 73.6963 132.362 74.4363 132.362 75.3296V81.2496H130.971V75.4096C130.971 74.3696 130.688 73.6229 130.123 73.1696C129.558 72.7163 128.797 72.4896 127.84 72.4896C126.767 72.4896 125.876 72.8163 125.166 73.4696C124.456 74.1096 124.101 75.0763 124.101 76.3696V81.2496H122.709Z" fill="#C8B493"/>
<path d="M114.86 81.2496V68.4896H109.816V67.2496H121.382V68.4896H116.338V81.2496H114.86Z" fill="#C8B493"/>
</svg>
