<svg width="140" height="140" viewBox="0 0 140 140" fill="none" xmlns="http://www.w3.org/2000/svg">
<path fill-rule="evenodd" clip-rule="evenodd" d="M70.0608 5.99963C89.4728 6.02803 105.2 21.7302 105.2 41.0953C105.2 60.458 89.4771 76.1575 70.0686 76.1901C69.9474 76.1899 69.8263 76.1866 69.7053 76.1852C69.6764 76.1856 69.6474 76.1858 69.6184 76.1862C68.2462 76.1713 66.8929 76.0809 65.5627 75.9137C65.3561 75.8828 65.1505 75.849 64.9456 75.8131C49.023 73.476 36.5824 60.519 35.0823 44.3805C35.0483 44.4201 35.0146 44.4599 34.9807 44.4996C34.8726 43.3795 34.8157 42.2437 34.8157 41.0953C34.8157 39.9961 34.8689 38.909 34.968 37.8356C35.0017 37.8751 35.0348 37.9153 35.0686 37.9547C36.5085 21.7579 48.9753 8.73439 64.9241 6.38049C65.136 6.34318 65.349 6.30893 65.5627 6.27698C66.9071 6.108 68.2752 6.01685 69.6624 6.00354C69.6744 6.00371 69.6864 6.00433 69.6985 6.00452C69.8191 6.0031 69.9399 5.99983 70.0608 5.99963ZM46.6985 50.4821C46.6903 50.7314 46.6858 50.9817 46.6858 51.233C46.6858 62.3001 54.7301 71.5357 65.2913 73.4293C66.7326 73.6424 68.2039 73.761 69.6995 73.7799C81.9816 73.5666 91.9153 63.5311 91.9153 51.233C91.9153 51.2301 91.9143 51.2272 91.9143 51.2242C85.3365 54.5621 77.8928 56.4459 70.0081 56.4459C61.5571 56.4459 53.6129 54.2815 46.6985 50.4821ZM102.799 43.6666C100.209 46.0491 97.3582 48.1524 94.2932 49.9303C94.3155 50.3618 94.3274 50.7961 94.3274 51.233C94.3274 58.4344 91.2638 64.9246 86.3674 69.4811C95.534 64.2441 101.933 54.7201 102.799 43.6666ZM37.4622 43.8951C38.2392 52.9942 42.7661 61.0396 49.4934 66.485C46.2215 62.2664 44.2727 56.9758 44.2727 51.233C44.2727 50.5186 44.3044 49.8112 44.3635 49.1119C41.9069 47.5772 39.5965 45.8315 37.4622 43.8951ZM69.3 28.6803C60.4882 28.6804 52.8346 33.7391 49.1047 41.0953C52.8345 48.4519 60.4879 53.5103 69.3 53.5104C78.1122 53.5104 85.7655 48.4518 89.4954 41.0953C85.7654 33.7392 78.112 28.6803 69.3 28.6803ZM90.6907 43.9166C88.5515 47.4194 85.571 50.3545 82.0305 52.4459C85.4455 51.5223 88.704 50.2171 91.7561 48.5758C91.5655 46.9651 91.2047 45.4061 90.6907 43.9166ZM47.9084 43.9156C47.4733 45.1766 47.1471 46.4876 46.9417 47.8375C49.564 49.3608 52.3488 50.6353 55.2659 51.6227C52.295 49.6115 49.7798 46.9804 47.9084 43.9156ZM93.9885 35.0582C93.6378 37.172 93.0213 39.196 92.1731 41.0953C93.0408 43.0383 93.6667 45.1115 94.0129 47.278C96.8638 45.5301 99.5093 43.4812 101.906 41.1754C99.5025 38.8632 96.8486 36.8092 93.9885 35.0582ZM44.7581 35.8649C42.379 37.4303 40.1532 39.209 38.1096 41.1754C40.1455 43.1344 42.3618 44.9072 44.7307 46.4684C45.0944 44.5944 45.6671 42.7947 46.426 41.0953C45.6864 39.439 45.1228 37.6877 44.7581 35.8649ZM86.3674 12.7096C91.264 17.2661 94.3274 23.757 94.3274 30.9586C94.3274 31.4474 94.3113 31.9328 94.2834 32.4147C97.3571 34.1966 100.216 36.3062 102.812 38.6959C101.999 27.5696 95.5815 17.9735 86.3674 12.7096ZM49.4807 15.7213C42.7196 21.2013 38.1803 29.3084 37.4465 38.4703C39.5891 36.5248 41.9095 34.7716 44.3772 33.2311C44.3094 32.4826 44.2727 31.7247 44.2727 30.9586C44.2727 25.2229 46.216 19.9374 49.4807 15.7213ZM54.7942 30.8942C52.0575 31.854 49.4383 33.064 46.9651 34.4987C47.1715 35.7973 47.489 37.0594 47.9084 38.275C49.6801 35.3738 52.0282 32.8602 54.7942 30.8942ZM82.509 30.0338C85.8399 32.1029 88.6485 34.9302 90.6907 38.274C91.1886 36.8312 91.5445 35.3234 91.7395 33.7662C88.8348 32.2058 85.7442 30.9465 82.509 30.0338ZM69.6995 8.41077C68.2008 8.4297 66.726 8.54809 65.2815 8.76233C54.7144 10.6582 46.6858 19.8934 46.6858 30.9586C46.6858 31.2621 46.6924 31.5642 46.7043 31.8649C53.6172 28.0677 61.5597 25.9059 70.0081 25.9059C77.8918 25.9059 85.3351 27.7885 91.9124 31.1256C91.9128 31.07 91.9153 31.0143 91.9153 30.9586C91.9153 18.6605 81.9816 8.62407 69.6995 8.41077Z" fill="#18181B"/>
<path d="M97.2754 90.2607C99.0441 90.2607 100.7 90.5895 102.242 91.2471C103.784 91.882 105.133 92.7897 106.289 93.9688C107.446 95.1252 108.353 96.4967 109.011 98.084C109.668 99.6713 109.997 101.418 109.997 103.322C109.997 105.227 109.668 106.985 109.011 108.595C108.353 110.182 107.446 111.565 106.289 112.744C105.133 113.901 103.784 114.808 102.242 115.466C100.7 116.101 99.0441 116.418 97.2754 116.418C95.5068 116.418 93.8514 116.101 92.3096 115.466C90.7676 114.808 89.4182 113.901 88.2617 112.744C87.1054 111.565 86.1986 110.182 85.541 108.595C84.8834 106.985 84.5547 105.227 84.5547 103.322C84.5547 101.418 84.8834 99.6713 85.541 98.084C86.1986 96.4742 87.1054 95.091 88.2617 93.9346C89.4182 92.7554 90.7676 91.8478 92.3096 91.2129C93.8514 90.578 95.5068 90.2608 97.2754 90.2607ZM122.75 90.2607C124.269 90.2607 125.63 90.5444 126.832 91.1113C128.056 91.6555 129.088 92.3812 129.927 93.2881C130.788 94.1951 131.401 95.2158 131.764 96.3496L129.247 97.3359C128.726 95.8621 127.897 94.7512 126.764 94.0029C125.63 93.232 124.303 92.8457 122.784 92.8457C121.809 92.8457 120.958 93.0163 120.232 93.3564C119.507 93.6739 118.94 94.1504 118.532 94.7852C118.147 95.3974 117.954 96.123 117.954 96.9619C117.954 97.9822 118.271 98.9005 118.906 99.7168C119.541 100.51 120.528 101.1 121.865 101.485L125.913 102.71C127.931 103.3 129.44 104.161 130.438 105.295C131.458 106.406 131.968 107.801 131.968 109.479C131.968 110.839 131.616 112.041 130.913 113.084C130.233 114.127 129.269 114.944 128.022 115.533C126.775 116.123 125.346 116.418 123.736 116.418C122.126 116.418 120.664 116.111 119.349 115.499C118.034 114.887 116.911 114.071 115.981 113.051C115.074 112.008 114.427 110.851 114.042 109.581L116.594 108.629C117.183 110.329 118.102 111.622 119.349 112.506C120.596 113.39 122.07 113.833 123.771 113.833C124.836 113.833 125.766 113.662 126.56 113.322C127.376 112.982 128 112.506 128.431 111.894C128.884 111.259 129.11 110.533 129.11 109.717C129.11 108.515 128.782 107.585 128.124 106.928C127.466 106.248 126.514 105.726 125.267 105.363L120.675 104.003C118.884 103.481 117.5 102.608 116.525 101.384C115.55 100.159 115.063 98.7533 115.062 97.166C115.062 95.8283 115.391 94.6377 116.049 93.5947C116.729 92.5516 117.648 91.7351 118.805 91.1455C119.961 90.556 121.276 90.2607 122.75 90.2607ZM12.8574 104.285L24.7959 90.6689H28.4014L19.0391 101.336L28.9795 116.01H25.5449L17.041 103.629L12.8574 108.391V116.01H10V90.6689H12.8574V104.285ZM51.3359 116.01H48.3086L46.166 109.887H34.9404L32.7637 116.01H29.7363L38.9541 90.6689H42.1182L51.3359 116.01ZM57.5342 116.01H54.6768V90.6689H57.5342V116.01ZM72.1875 90.6689C73.8654 90.6689 75.3281 90.9978 76.5752 91.6553C77.8224 92.2902 78.798 93.1978 79.501 94.377C80.2038 95.5333 80.5546 96.8937 80.5547 98.458C80.5547 100.227 80.0899 101.747 79.1602 103.017C78.2305 104.286 76.9604 105.182 75.3506 105.703L81.2695 116.01H77.9023L72.3467 106.18H66.3037V116.01H63.4463V90.6689H72.1875ZM97.2754 92.9482C95.8243 92.9483 94.4976 93.2205 93.2959 93.7646C92.0942 94.2862 91.0513 95.0348 90.167 96.0098C89.3054 96.9621 88.6248 98.073 88.126 99.3428C87.6498 100.59 87.4121 101.916 87.4121 103.322C87.4121 104.751 87.6498 106.1 88.126 107.37C88.6248 108.617 89.3054 109.728 90.167 110.703C91.0513 111.655 92.0942 112.404 93.2959 112.948C94.5203 113.47 95.8469 113.73 97.2754 113.73C98.7267 113.73 100.054 113.47 101.256 112.948C102.458 112.404 103.489 111.655 104.351 110.703C105.235 109.728 105.915 108.617 106.392 107.37C106.89 106.1 107.14 104.751 107.14 103.322C107.14 101.916 106.89 100.59 106.392 99.3428C105.915 98.073 105.235 96.9621 104.351 96.0098C103.489 95.0348 102.457 94.2862 101.256 93.7646C100.054 93.2204 98.7267 92.9482 97.2754 92.9482ZM35.8594 107.2H45.1787L40.5342 94.0137L35.8594 107.2ZM66.3037 103.492H72.3242C73.3898 103.492 74.3197 103.288 75.1133 102.88C75.9294 102.472 76.5526 101.894 76.9834 101.146C77.4369 100.375 77.664 99.4677 77.6641 98.4248C77.6641 97.3817 77.4369 96.4856 76.9834 95.7373C76.5526 94.9665 75.9294 94.3769 75.1133 93.9688C74.3197 93.5606 73.3898 93.3565 72.3242 93.3564H66.3037V103.492Z" fill="#18181B"/>
<path d="M132.696 131.901C132.368 131.901 132.117 131.82 131.945 131.657C131.781 131.486 131.699 131.246 131.699 130.936V126.658H129.815V125.949H131.699V123.749H132.499V125.949H134.568V126.658H132.499V130.838C132.499 131.083 132.622 131.205 132.869 131.205H134.26V131.901H132.696Z" fill="#18181B"/>
<path d="M123.808 131.901V125.949H124.572V127.037H124.732C124.872 126.719 125.105 126.438 125.434 126.194C125.77 125.949 126.255 125.827 126.887 125.827C127.33 125.827 127.732 125.921 128.094 126.108C128.455 126.287 128.742 126.56 128.956 126.927C129.169 127.285 129.276 127.738 129.276 128.284V131.901H128.488V128.333C128.488 127.697 128.328 127.241 128.007 126.964C127.687 126.678 127.256 126.536 126.714 126.536C126.107 126.536 125.602 126.735 125.2 127.135C124.798 127.534 124.597 128.129 124.597 128.919V131.901H123.808Z" fill="#18181B"/>
<path d="M119.882 132.073C119.267 132.073 118.729 131.946 118.269 131.694C117.818 131.433 117.465 131.07 117.21 130.606C116.956 130.142 116.829 129.608 116.829 129.005V128.858C116.829 128.239 116.956 127.701 117.21 127.245C117.465 126.78 117.814 126.422 118.257 126.169C118.709 125.909 119.222 125.778 119.796 125.778C120.363 125.778 120.859 125.896 121.286 126.133C121.721 126.369 122.062 126.707 122.308 127.147C122.555 127.579 122.678 128.1 122.678 128.712V129.103H117.617C117.641 129.828 117.863 130.386 118.282 130.777C118.709 131.168 119.242 131.364 119.882 131.364C120.432 131.364 120.855 131.242 121.151 130.997C121.455 130.744 121.688 130.439 121.853 130.08L122.555 130.398C122.431 130.667 122.259 130.932 122.037 131.193C121.824 131.445 121.545 131.657 121.2 131.828C120.855 131.991 120.416 132.073 119.882 132.073ZM117.629 128.43H121.865C121.832 127.811 121.627 127.334 121.249 127C120.872 126.658 120.387 126.487 119.796 126.487C119.213 126.487 118.729 126.658 118.343 127C117.957 127.334 117.719 127.811 117.629 128.43Z" fill="#18181B"/>
<path d="M107.181 131.901V125.949H107.945V126.731H108.105C108.228 126.511 108.421 126.308 108.684 126.12C108.954 125.925 109.336 125.827 109.829 125.827C110.313 125.827 110.703 125.937 110.998 126.157C111.294 126.377 111.507 126.638 111.639 126.939H111.799C111.938 126.638 112.152 126.377 112.439 126.157C112.735 125.937 113.149 125.827 113.683 125.827C114.085 125.827 114.438 125.913 114.742 126.084C115.046 126.247 115.284 126.479 115.456 126.78C115.637 127.082 115.727 127.432 115.727 127.831V131.901H114.926V127.917C114.926 127.493 114.799 127.159 114.545 126.915C114.29 126.662 113.937 126.536 113.486 126.536C113.018 126.536 112.628 126.687 112.316 126.988C112.004 127.29 111.848 127.725 111.848 128.296V131.901H111.048V127.917C111.048 127.493 110.92 127.159 110.666 126.915C110.42 126.662 110.067 126.536 109.607 126.536C109.139 126.536 108.749 126.687 108.437 126.988C108.125 127.29 107.969 127.725 107.969 128.296V131.901H107.181Z" fill="#18181B"/>
<path d="M102.966 132.073C102.359 132.073 101.825 131.946 101.366 131.694C100.906 131.433 100.549 131.074 100.294 130.618C100.048 130.154 99.925 129.616 99.925 129.005V128.858C99.925 128.239 100.048 127.701 100.294 127.245C100.549 126.78 100.906 126.422 101.366 126.169C101.825 125.909 102.359 125.778 102.966 125.778C103.574 125.778 104.103 125.909 104.555 126.169C105.015 126.422 105.372 126.78 105.626 127.245C105.881 127.701 106.008 128.239 106.008 128.858V129.005C106.008 129.616 105.881 130.154 105.626 130.618C105.372 131.074 105.015 131.433 104.555 131.694C104.103 131.946 103.574 132.073 102.966 132.073ZM102.966 131.364C103.656 131.364 104.202 131.148 104.604 130.716C105.006 130.276 105.208 129.697 105.208 128.98V128.883C105.208 128.157 105.006 127.579 104.604 127.147C104.202 126.707 103.656 126.487 102.966 126.487C102.285 126.487 101.739 126.707 101.329 127.147C100.918 127.579 100.713 128.157 100.713 128.883V128.98C100.713 129.697 100.918 130.276 101.329 130.716C101.739 131.148 102.285 131.364 102.966 131.364Z" fill="#18181B"/>
<path d="M90.265 131.901V123.346H91.9027L94.4393 131.388H94.587L97.1236 123.346H98.7613V131.901H97.9363V123.859H97.7885L95.252 131.901H93.762L91.2377 123.859H91.0777V131.901H90.265Z" fill="#18181B"/>
<path d="M84.3244 132.073C83.5938 132.073 82.9699 131.902 82.4528 131.559C81.9438 131.217 81.6319 130.655 81.5169 129.873L82.2927 129.726C82.3584 130.15 82.4897 130.484 82.6867 130.728C82.8837 130.964 83.1218 131.136 83.4009 131.242C83.6882 131.347 83.996 131.4 84.3244 131.4C84.8087 131.4 85.1946 131.303 85.4819 131.107C85.7692 130.912 85.9129 130.643 85.9129 130.3C85.9129 129.958 85.7733 129.718 85.4942 129.579C85.2233 129.441 84.858 129.335 84.3983 129.262L83.8565 129.164C83.4707 129.099 83.1218 128.997 82.8098 128.858C82.5061 128.72 82.2639 128.536 82.0833 128.308C81.911 128.08 81.8248 127.795 81.8248 127.453C81.8248 126.931 82.0259 126.524 82.4281 126.23C82.8386 125.929 83.3845 125.778 84.0658 125.778C84.7472 125.778 85.2931 125.933 85.7035 126.243C86.1222 126.544 86.389 126.98 86.5039 127.55L85.7528 127.722C85.6789 127.265 85.4901 126.943 85.1864 126.756C84.8826 126.56 84.5091 126.463 84.0658 126.463C83.6225 126.463 83.2695 126.544 83.0069 126.707C82.7442 126.87 82.6128 127.114 82.6128 127.44C82.6128 127.758 82.7319 127.99 82.9699 128.137C83.2162 128.284 83.5445 128.394 83.955 128.467L84.5091 128.565C84.9278 128.63 85.3013 128.728 85.6296 128.858C85.958 128.98 86.2207 129.156 86.4177 129.384C86.6147 129.612 86.7132 129.917 86.7132 130.3C86.7132 130.863 86.4957 131.299 86.0606 131.608C85.6338 131.918 85.055 132.073 84.3244 132.073Z" fill="#18181B"/>
<path d="M77.3736 132.024C76.9386 132.024 76.5404 131.934 76.1792 131.755C75.818 131.567 75.5266 131.294 75.305 130.936C75.0915 130.569 74.9848 130.113 74.9848 129.567V125.949H75.7852V129.518C75.7852 130.145 75.9453 130.602 76.2654 130.887C76.5856 131.172 77.0165 131.315 77.5583 131.315C78.1658 131.315 78.6666 131.119 79.0606 130.728C79.4628 130.329 79.664 129.73 79.664 128.931V125.949H80.4643V131.901H79.6886V130.826H79.5408C79.3931 131.135 79.1509 131.413 78.8143 131.657C78.486 131.901 78.0057 132.024 77.3736 132.024Z" fill="#18181B"/>
<path d="M70.8561 132.073C70.2487 132.073 69.7151 131.946 69.2554 131.694C68.7957 131.433 68.4386 131.074 68.1841 130.618C67.9378 130.154 67.8147 129.616 67.8147 129.005V128.858C67.8147 128.239 67.9378 127.701 68.1841 127.245C68.4386 126.78 68.7957 126.422 69.2554 126.169C69.7151 125.909 70.2487 125.778 70.8561 125.778C71.4636 125.778 71.9931 125.909 72.4446 126.169C72.9043 126.422 73.2614 126.78 73.5159 127.245C73.7704 127.701 73.8976 128.239 73.8976 128.858V129.005C73.8976 129.616 73.7704 130.154 73.5159 130.618C73.2614 131.074 72.9043 131.433 72.4446 131.694C71.9931 131.946 71.4636 132.073 70.8561 132.073ZM70.8561 131.364C71.5457 131.364 72.0916 131.148 72.4939 130.716C72.8961 130.276 73.0972 129.697 73.0972 128.98V128.883C73.0972 128.157 72.8961 127.579 72.4939 127.147C72.0916 126.707 71.5457 126.487 70.8561 126.487C70.1748 126.487 69.6289 126.707 69.2185 127.147C68.808 127.579 68.6028 128.157 68.6028 128.883V128.98C68.6028 129.697 68.808 130.276 69.2185 130.716C69.6289 131.148 70.1748 131.364 70.8561 131.364Z" fill="#18181B"/>
<path d="M65.8392 131.901V125.949H66.6272V131.901H65.8392ZM66.2332 124.947C66.0444 124.947 65.8843 124.886 65.753 124.764C65.6299 124.633 65.5683 124.474 65.5683 124.287C65.5683 124.091 65.6299 123.933 65.753 123.81C65.8843 123.688 66.0444 123.627 66.2332 123.627C66.422 123.627 66.578 123.688 66.7011 123.81C66.8325 123.933 66.8981 124.091 66.8981 124.287C66.8981 124.474 66.8325 124.633 66.7011 124.764C66.578 124.886 66.422 124.947 66.2332 124.947Z" fill="#18181B"/>
<path d="M61.8408 132.073C61.2497 132.073 60.7243 131.95 60.2646 131.706C59.8131 131.453 59.456 131.095 59.1934 130.63C58.9307 130.166 58.7993 129.62 58.7993 128.993V128.87C58.7993 128.227 58.9307 127.677 59.1934 127.22C59.456 126.756 59.8131 126.402 60.2646 126.157C60.7243 125.904 61.2497 125.778 61.8408 125.778C62.4154 125.778 62.8997 125.888 63.2938 126.108C63.696 126.32 64.008 126.601 64.2296 126.952C64.4594 127.294 64.6072 127.66 64.6729 128.052L63.8848 128.21C63.8438 127.893 63.7412 127.607 63.577 127.355C63.421 127.094 63.1994 126.886 62.912 126.732C62.6247 126.569 62.2676 126.487 61.8408 126.487C61.4139 126.487 61.0281 126.585 60.6833 126.78C60.3467 126.976 60.0799 127.253 59.8829 127.612C59.6859 127.97 59.5874 128.394 59.5874 128.883V128.98C59.5874 129.469 59.6859 129.893 59.8829 130.252C60.0799 130.602 60.3467 130.875 60.6833 131.07C61.0281 131.266 61.4139 131.364 61.8408 131.364C62.4811 131.364 62.9695 131.201 63.3061 130.875C63.6427 130.541 63.852 130.129 63.9341 129.64L64.7221 129.812C64.64 130.194 64.48 130.561 64.2419 130.912C64.0121 131.254 63.696 131.535 63.2938 131.755C62.8997 131.967 62.4154 132.073 61.8408 132.073Z" fill="#18181B"/>
<path d="M56.8238 131.901V125.949H57.6119V131.901H56.8238ZM57.2178 124.947C57.029 124.947 56.869 124.886 56.7376 124.764C56.6145 124.633 56.5529 124.474 56.5529 124.287C56.5529 124.091 56.6145 123.933 56.7376 123.81C56.869 123.688 57.029 123.627 57.2178 123.627C57.4066 123.627 57.5626 123.688 57.6858 123.81C57.8171 123.933 57.8828 124.091 57.8828 124.287C57.8828 124.474 57.8171 124.633 57.6858 124.764C57.5626 124.886 57.4066 124.947 57.2178 124.947Z" fill="#18181B"/>
<path d="M49.5504 134.346V125.949H50.3138V127.013H50.4739C50.6381 126.695 50.9008 126.41 51.262 126.157C51.6232 125.904 52.128 125.778 52.7765 125.778C53.3101 125.778 53.7944 125.904 54.2295 126.157C54.6646 126.402 55.0094 126.752 55.2639 127.208C55.5266 127.664 55.6579 128.214 55.6579 128.858V129.005C55.6579 129.632 55.5307 130.178 55.2762 130.643C55.0217 131.099 54.6769 131.453 54.2418 131.706C53.8068 131.95 53.3183 132.073 52.7765 132.073C52.3497 132.073 51.9844 132.016 51.6806 131.902C51.3769 131.787 51.1306 131.637 50.9418 131.449C50.753 131.262 50.6052 131.074 50.4985 130.887H50.3385V134.346H49.5504ZM52.5918 131.364C53.2568 131.364 53.7945 131.152 54.2049 130.728C54.6236 130.304 54.8329 129.722 54.8329 128.98V128.883C54.8329 128.133 54.6236 127.546 54.2049 127.123C53.7945 126.699 53.2568 126.487 52.5918 126.487C51.9269 126.487 51.3851 126.699 50.9664 127.123C50.5478 127.546 50.3385 128.133 50.3385 128.883V128.98C50.3385 129.722 50.5478 130.304 50.9664 130.728C51.3851 131.152 51.9269 131.364 52.5918 131.364Z" fill="#18181B"/>
<path d="M46.0968 132.073C45.3661 132.073 44.7423 131.902 44.2251 131.559C43.7161 131.217 43.4042 130.655 43.2893 129.873L44.065 129.726C44.1307 130.15 44.262 130.484 44.459 130.728C44.6561 130.964 44.8941 131.136 45.1732 131.242C45.4606 131.347 45.7684 131.4 46.0968 131.4C46.5811 131.4 46.9669 131.303 47.2542 131.107C47.5415 130.912 47.6852 130.643 47.6852 130.3C47.6852 129.958 47.5456 129.718 47.2665 129.579C46.9956 129.441 46.6303 129.335 46.1706 129.262L45.6288 129.164C45.243 129.099 44.8941 128.997 44.5822 128.858C44.2785 128.72 44.0363 128.536 43.8557 128.308C43.6833 128.08 43.5971 127.795 43.5971 127.453C43.5971 126.931 43.7982 126.524 44.2005 126.23C44.6109 125.929 45.1568 125.778 45.8382 125.778C46.5195 125.778 47.0654 125.933 47.4759 126.243C47.8945 126.544 48.1613 126.98 48.2762 127.55L47.5251 127.722C47.4512 127.265 47.2624 126.943 46.9587 126.756C46.655 126.56 46.2815 126.463 45.8382 126.463C45.3949 126.463 45.0419 126.544 44.7792 126.707C44.5165 126.87 44.3852 127.114 44.3852 127.44C44.3852 127.758 44.5042 127.99 44.7423 128.137C44.9885 128.284 45.3169 128.394 45.7273 128.467L46.2815 128.565C46.7001 128.63 47.0736 128.728 47.402 128.858C47.7304 128.98 47.993 129.156 48.1901 129.384C48.3871 129.612 48.4856 129.917 48.4856 130.3C48.4856 130.863 48.268 131.299 47.833 131.608C47.4061 131.918 46.8274 132.073 46.0968 132.073Z" fill="#18181B"/>
<path d="M39.146 132.024C38.7109 132.024 38.3128 131.934 37.9516 131.755C37.5904 131.567 37.2989 131.294 37.0773 130.936C36.8639 130.569 36.7572 130.113 36.7572 129.567V125.949H37.5575V129.518C37.5575 130.145 37.7176 130.602 38.0378 130.887C38.3579 131.172 38.7889 131.315 39.3307 131.315C39.9382 131.315 40.4389 131.119 40.8329 130.728C41.2352 130.329 41.4363 129.73 41.4363 128.931V125.949H42.2367V131.901H41.4609V130.826H41.3132C41.1654 131.135 40.9232 131.413 40.5867 131.657C40.2583 131.901 39.7781 132.024 39.146 132.024Z" fill="#18181B"/>
<path d="M29.0355 131.901L31.8184 123.346H33.3207L36.1035 131.901H35.2169L34.5028 129.653H30.6486L29.9221 131.901H29.0355ZM30.8703 128.895H34.2688L32.6434 123.847H32.4956L30.8703 128.895Z" fill="#18181B"/>
<path d="M23.5052 132.073C22.8895 132.073 22.3518 131.946 21.8921 131.694C21.4406 131.433 21.0876 131.07 20.8331 130.606C20.5787 130.142 20.4514 129.608 20.4514 129.005V128.858C20.4514 128.239 20.5787 127.701 20.8331 127.245C21.0876 126.78 21.4365 126.422 21.8798 126.169C22.3313 125.909 22.8444 125.778 23.419 125.778C23.9854 125.778 24.4821 125.896 24.9089 126.133C25.344 126.369 25.6847 126.707 25.9309 127.147C26.1772 127.579 26.3004 128.1 26.3004 128.712V129.103H21.2395C21.2641 129.828 21.4858 130.386 21.9044 130.777C22.3313 131.168 22.8649 131.364 23.5052 131.364C24.0552 131.364 24.478 131.242 24.7735 130.997C25.0772 130.744 25.3112 130.439 25.4753 130.08L26.1772 130.398C26.0541 130.667 25.8817 130.932 25.6601 131.193C25.4466 131.445 25.1675 131.657 24.8227 131.828C24.478 131.991 24.0388 132.073 23.5052 132.073ZM21.2518 128.43H25.4877C25.4548 127.811 25.2496 127.334 24.872 127C24.4944 126.658 24.01 126.487 23.419 126.487C22.8361 126.487 22.3518 126.658 21.966 127C21.5802 127.334 21.3421 127.811 21.2518 128.43Z" fill="#18181B"/>
<path d="M13.8703 131.901V123.346H14.6584V126.976H14.8185C14.9088 126.78 15.0401 126.597 15.2125 126.426C15.3931 126.255 15.623 126.116 15.9021 126.01C16.1812 125.896 16.5301 125.839 16.9487 125.839C17.392 125.839 17.7943 125.933 18.1555 126.12C18.5167 126.3 18.804 126.569 19.0174 126.927C19.2308 127.286 19.3376 127.738 19.3376 128.284V131.901H18.5495V128.333C18.5495 127.697 18.3894 127.241 18.0693 126.964C17.7491 126.687 17.3181 126.548 16.7763 126.548C16.1689 126.548 15.664 126.748 15.2618 127.147C14.8595 127.538 14.6584 128.129 14.6584 128.919V131.901H13.8703Z" fill="#18181B"/>
<path d="M9.42461 131.901V124.104H6.56787V123.346H13.1187V124.104H10.2619V131.901H9.42461Z" fill="#18181B"/>
</svg>
