<svg width="541" height="541" viewBox="0 0 541 541" fill="none" xmlns="http://www.w3.org/2000/svg">
<g clip-path="url(#clip0_23386_750)">
<path opacity="0.24" d="M540.5 270.5C540.5 274.92 540.39 279.33 540.17 283.75C539.95 288.16 539.63 292.57 539.2 296.97C538.77 301.37 538.23 305.75 537.58 310.12C536.93 314.49 536.18 318.84 535.31 323.18C534.44 327.52 533.48 331.82 532.41 336.11C531.34 340.4 530.16 344.65 528.88 348.88C527.6 353.11 526.21 357.3 524.72 361.46C523.23 365.62 521.64 369.74 519.95 373.82C518.26 377.9 516.47 381.94 514.58 385.94C512.69 389.93 510.7 393.88 508.62 397.78C506.54 401.68 504.36 405.52 502.09 409.31C499.82 413.1 497.46 416.83 495 420.51C492.54 424.18 490 427.8 487.37 431.34C484.74 434.89 482.02 438.37 479.22 441.79C476.42 445.21 473.53 448.55 470.56 451.82C467.59 455.09 464.55 458.29 461.42 461.42C458.3 464.54 455.1 467.59 451.82 470.56C448.55 473.53 445.2 476.41 441.79 479.22C438.37 482.02 434.89 484.74 431.34 487.37C427.79 490 424.18 492.55 420.51 495C416.84 497.45 413.1 499.82 409.31 502.09C405.52 504.36 401.68 506.54 397.78 508.62C393.88 510.7 389.94 512.69 385.94 514.58C381.95 516.47 377.91 518.26 373.82 519.95C369.74 521.64 365.62 523.23 361.46 524.72C357.3 526.21 353.11 527.59 348.88 528.88C344.65 530.16 340.39 531.34 336.11 532.41C331.82 533.48 327.51 534.45 323.18 535.31C318.85 536.17 314.49 536.93 310.12 537.58C305.75 538.23 301.36 538.77 296.97 539.2C292.58 539.63 288.17 539.96 283.75 540.17C279.34 540.39 274.92 540.5 270.5 540.5C266.08 540.5 261.67 540.39 257.25 540.17C252.84 539.95 248.43 539.63 244.03 539.2C239.63 538.77 235.25 538.23 230.88 537.58C226.51 536.93 222.16 536.18 217.82 535.31C213.49 534.45 209.18 533.48 204.89 532.41C200.6 531.34 196.35 530.16 192.12 528.88C187.89 527.6 183.7 526.21 179.54 524.72C175.38 523.23 171.26 521.64 167.18 519.95C163.1 518.26 159.06 516.47 155.06 514.58C151.07 512.69 147.12 510.7 143.22 508.62C139.32 506.54 135.48 504.36 131.69 502.09C127.9 499.82 124.17 497.45 120.49 495C116.81 492.55 113.2 490 109.66 487.37C106.11 484.74 102.63 482.02 99.21 479.22C95.79 476.42 92.45 473.53 89.18 470.56C85.91 467.59 82.71 464.55 79.58 461.42C76.45 458.29 73.41 455.1 70.44 451.82C67.47 448.55 64.59 445.2 61.78 441.79C58.98 438.37 56.26 434.89 53.63 431.34C51 427.79 48.45 424.18 46 420.51C43.55 416.84 41.18 413.1 38.91 409.31C36.64 405.52 34.46 401.68 32.38 397.78C30.3 393.88 28.31 389.94 26.42 385.94C24.53 381.95 22.74 377.91 21.05 373.82C19.36 369.74 17.77 365.62 16.28 361.46C14.79 357.3 13.41 353.11 12.12 348.88C10.84 344.65 9.66 340.39 8.59 336.11C7.52 331.82 6.55 327.51 5.69 323.18C4.83 318.85 4.07 314.49 3.42 310.12C2.77 305.75 2.23 301.36 1.8 296.97C1.37 292.57 1.04 288.17 0.830002 283.75C0.610002 279.34 0.5 274.92 0.5 270.5C0.5 266.08 0.610002 261.67 0.830002 257.25C1.05 252.84 1.37 248.43 1.8 244.03C2.23 239.63 2.77 235.25 3.42 230.88C4.07 226.51 4.82 222.16 5.69 217.82C6.55 213.49 7.52 209.18 8.59 204.89C9.66 200.6 10.84 196.35 12.12 192.12C13.4 187.89 14.79 183.7 16.28 179.54C17.77 175.38 19.36 171.26 21.05 167.18C22.74 163.1 24.53 159.06 26.42 155.06C28.31 151.07 30.3 147.12 32.38 143.22C34.46 139.32 36.64 135.48 38.91 131.69C41.18 127.9 43.55 124.17 46 120.49C48.45 116.82 51 113.2 53.63 109.66C56.26 106.11 58.98 102.63 61.78 99.21C64.58 95.79 67.47 92.45 70.44 89.18C73.41 85.91 76.45 82.71 79.58 79.58C82.7 76.46 85.9 73.41 89.18 70.44C92.45 67.47 95.8 64.59 99.21 61.78C102.63 58.98 106.11 56.26 109.66 53.63C113.21 51 116.82 48.45 120.49 46C124.16 43.55 127.9 41.18 131.69 38.91C135.48 36.64 139.32 34.46 143.22 32.38C147.12 30.3 151.06 28.31 155.06 26.42C159.05 24.53 163.09 22.74 167.18 21.05C171.26 19.36 175.38 17.77 179.54 16.28C183.7 14.79 187.89 13.41 192.12 12.12C196.35 10.84 200.61 9.66 204.89 8.59C209.18 7.52 213.49 6.55 217.82 5.69C222.15 4.83 226.51 4.07 230.88 3.42C235.25 2.77 239.64 2.23 244.03 1.8C248.43 1.37 252.83 1.04 257.25 0.830002C261.66 0.610002 266.08 0.5 270.5 0.5C274.92 0.5 279.33 0.610002 283.75 0.830002C288.16 1.05 292.57 1.37 296.97 1.8C301.37 2.23 305.75 2.77 310.12 3.42C314.49 4.07 318.84 4.82 323.18 5.69C327.51 6.55 331.82 7.52 336.11 8.59C340.4 9.66 344.65 10.84 348.88 12.12C353.11 13.4 357.3 14.79 361.46 16.28C365.62 17.77 369.74 19.36 373.82 21.05C377.9 22.74 381.94 24.53 385.94 26.42C389.93 28.31 393.88 30.3 397.78 32.38C401.68 34.46 405.52 36.64 409.31 38.91C413.1 41.18 416.83 43.55 420.51 46C424.18 48.45 427.8 51 431.34 53.63C434.89 56.26 438.37 58.98 441.79 61.78C445.21 64.58 448.55 67.47 451.82 70.44C455.09 73.41 458.29 76.45 461.42 79.58C464.54 82.7 467.59 85.9 470.56 89.18C473.53 92.45 476.41 95.8 479.22 99.21C482.02 102.63 484.74 106.11 487.37 109.66C490 113.21 492.55 116.82 495 120.49C497.45 124.16 499.82 127.9 502.09 131.69C504.36 135.48 506.54 139.32 508.62 143.22C510.7 147.12 512.69 151.06 514.58 155.06C516.47 159.05 518.26 163.09 519.95 167.18C521.64 171.27 523.23 175.38 524.72 179.54C526.21 183.7 527.59 187.89 528.88 192.12C530.16 196.35 531.34 200.61 532.41 204.89C533.48 209.18 534.45 213.49 535.31 217.82C536.17 222.15 536.93 226.51 537.58 230.88C538.23 235.25 538.77 239.64 539.2 244.03C539.63 248.43 539.96 252.83 540.17 257.25C540.39 261.66 540.5 266.08 540.5 270.5Z" stroke="#0D1520" stroke-width="0.75"/>
<path opacity="0.2" d="M540.88 270.5C540.88 271.24 540.85 271.99 540.8 272.73L540.05 272.68C540.1 271.95 540.13 271.23 540.13 270.5H540.88ZM540.78 268.14C540.84 268.88 540.87 269.63 540.87 270.37H540.12C540.12 269.65 540.09 268.92 540.03 268.2L540.78 268.14ZM539.71 262.11C539.92 262.86 540.1 263.62 540.25 264.37L539.51 264.52C539.36 263.78 539.18 263.05 538.98 262.31L539.7 262.11H539.71ZM537.64 256.52C537.97 257.22 538.27 257.92 538.55 258.62L537.85 258.9C537.58 258.21 537.28 257.52 536.96 256.84L537.64 256.52ZM534.71 251.26C535.11 251.88 535.49 252.49 535.85 253.11L535.2 253.49C534.84 252.88 534.47 252.27 534.08 251.67L534.71 251.26ZM531.06 246.32C531.57 246.94 532.06 247.55 532.53 248.17L531.93 248.62C531.47 248.01 530.98 247.4 530.48 246.79L531.06 246.31V246.32ZM527.1 241.97C527.62 242.5 528.13 243.03 528.63 243.56L528.08 244.07C527.59 243.55 527.09 243.02 526.57 242.5L527.1 241.97ZM522.57 237.75C523.18 238.27 523.77 238.8 524.35 239.33L523.84 239.88C523.27 239.36 522.68 238.84 522.08 238.32L522.57 237.75ZM518.01 234.07C518.6 234.52 519.17 234.96 519.74 235.41L519.27 236C518.71 235.55 518.14 235.11 517.56 234.67L518.01 234.07ZM513.06 230.52C513.71 230.96 514.35 231.4 514.97 231.85L514.54 232.46C513.92 232.02 513.28 231.58 512.64 231.14L513.06 230.52ZM508 227.25C508.62 227.63 509.22 228.01 509.82 228.39L509.42 229.02C508.82 228.64 508.22 228.26 507.61 227.89L508 227.25ZM502.89 224.25C503.55 224.62 504.21 224.99 504.85 225.37L504.47 226.02C503.83 225.65 503.18 225.28 502.52 224.91L502.89 224.26V224.25ZM497.41 221.3C498.12 221.66 498.82 222.03 499.51 222.4L499.16 223.06C498.47 222.69 497.78 222.33 497.07 221.97L497.41 221.3ZM492.17 218.7C492.83 219.02 493.49 219.33 494.14 219.65L493.81 220.32C493.16 220 492.51 219.69 491.85 219.37L492.17 218.69V218.7ZM486.74 216.2C487.44 216.51 488.13 216.82 488.81 217.13L488.5 217.81C487.82 217.5 487.13 217.19 486.44 216.88L486.74 216.19V216.2ZM481.04 213.75C481.77 214.05 482.49 214.36 483.21 214.66L482.92 215.35C482.2 215.05 481.48 214.74 480.76 214.44L481.05 213.75H481.04ZM475.59 211.56L477.63 212.36L477.36 213.06L475.32 212.26L475.59 211.56ZM470.01 209.46L472.12 210.24L471.86 210.94L469.75 210.16L470.01 209.46ZM464.23 207.42L466.42 208.18L466.17 208.89L463.98 208.13L464.23 207.42ZM458.53 205.52L460.61 206.2L460.38 206.91L458.3 206.23L458.53 205.52ZM452.88 203.75L455.01 204.41L454.79 205.13L452.66 204.47L452.88 203.75ZM447.09 202.03L449.28 202.67L449.07 203.39L446.88 202.75L447.09 202.03ZM441.17 200.37L443.41 200.98L443.21 201.7L440.97 201.09L441.17 200.37ZM435.46 198.86L437.6 199.42L437.41 200.15L435.27 199.59L435.46 198.86ZM429.67 197.42L431.85 197.96L431.67 198.69L429.49 198.15L429.67 197.42ZM423.78 196.03L426 196.55L425.83 197.28L423.61 196.76L423.78 196.03ZM417.82 194.69L420.05 195.18L419.89 195.91L417.66 195.42L417.82 194.69ZM412.03 193.47L414.21 193.92L414.06 194.65L411.88 194.2L412.03 193.47ZM406.16 192.3L408.37 192.73L408.23 193.47L406.02 193.04L406.16 192.3ZM400.22 191.19L402.45 191.6L402.31 192.34L400.08 191.93L400.22 191.19ZM394.24 190.13L396.48 190.52L396.35 191.26L394.11 190.87L394.24 190.13ZM388.37 189.15L390.58 189.51L390.46 190.25L388.25 189.89L388.37 189.15ZM382.45 188.22L384.67 188.56L384.56 189.3L382.34 188.96L382.45 188.22ZM376.49 187.35L378.73 187.67L378.62 188.41L376.38 188.09L376.49 187.35ZM370.5 186.52L372.75 186.82L372.65 187.56L370.4 187.26L370.5 186.52ZM364.55 185.76L366.78 186.04L366.69 186.78L364.46 186.5L364.55 185.76ZM358.6 185.05L360.83 185.31L360.74 186.05L358.51 185.79L358.6 185.05ZM352.62 184.39L354.86 184.63L354.78 185.38L352.54 185.14L352.62 184.39ZM346.64 183.78L348.88 184L348.81 184.75L346.57 184.53L346.64 183.78ZM340.65 183.21L342.9 183.41L342.83 184.16L340.58 183.96L340.65 183.21ZM334.66 182.7L336.91 182.89L336.85 183.64L334.6 183.45L334.66 182.7ZM328.67 182.24L330.91 182.41L330.85 183.16L328.61 182.99L328.67 182.24ZM322.69 181.82L324.93 181.97L324.88 182.72L322.64 182.57L322.69 181.82ZM316.69 181.45L318.95 181.58L318.91 182.33L316.65 182.2L316.69 181.45ZM310.66 181.13L312.92 181.25L312.88 182L310.62 181.88L310.66 181.13ZM304.66 180.85L306.91 180.95L306.88 181.7L304.63 181.6L304.66 180.85ZM298.69 180.62L300.93 180.7L300.9 181.45L298.66 181.37L298.69 180.62ZM292.69 180.43L294.97 180.5L294.95 181.25L292.67 181.18L292.69 180.43ZM286.64 180.29L288.91 180.34L288.89 181.09L286.62 181.04L286.64 180.29ZM280.63 180.19L282.88 180.22V180.97L280.62 180.94V180.19H280.63ZM274.66 180.14H276.89V180.9H274.66V180.14ZM268.74 180.13H270.5H270.96V180.88H270.5H268.74V180.13ZM262.8 180.16L265.03 180.14V180.89L262.8 180.91V180.16ZM256.8 180.24L259.05 180.2V180.95L256.81 180.99V180.24H256.8ZM250.76 180.37L253.03 180.32L253.05 181.07L250.78 181.12L250.76 180.37ZM244.72 180.54L246.96 180.47L246.98 181.22L244.74 181.29L244.72 180.54ZM238.76 180.75L241 180.66L241.03 181.41L238.79 181.5L238.76 180.75ZM232.77 181.01L235.02 180.91L235.05 181.66L232.8 181.76L232.77 181.01ZM226.75 181.31L229.01 181.19L229.05 181.94L226.79 182.06L226.75 181.31ZM220.72 181.67L222.98 181.53L223.03 182.28L220.77 182.42L220.72 181.67ZM214.75 182.06L216.99 181.91L217.04 182.66L214.8 182.81L214.75 182.06ZM208.77 182.51L211.01 182.34L211.07 183.09L208.83 183.26L208.77 182.51ZM202.78 183L205.03 182.81L205.09 183.56L202.84 183.75L202.78 183ZM196.78 183.54L199.03 183.33L199.1 184.08L196.85 184.29L196.78 183.54ZM190.8 184.13L193.04 183.9L193.12 184.65L190.88 184.88L190.8 184.13ZM184.82 184.77L187.06 184.52L187.14 185.27L184.9 185.52L184.82 184.77ZM178.86 185.47L181.09 185.21L181.18 185.95L178.95 186.21L178.86 185.47ZM172.91 186.21L175.14 185.93L175.23 186.67L173 186.95L172.91 186.21ZM166.93 187.01L169.18 186.7L169.28 187.44L167.03 187.75L166.93 187.01ZM160.96 187.86L163.19 187.53L163.3 188.27L161.07 188.6L160.96 187.86ZM155.03 188.77L157.25 188.42L157.37 189.16L155.15 189.51L155.03 188.77ZM149.13 189.72L151.33 189.35L151.45 190.09L149.25 190.46L149.13 189.72ZM143.2 190.75L145.45 190.35L145.58 191.09L143.33 191.49L143.2 190.75ZM137.24 191.84L139.47 191.42L139.61 192.16L137.38 192.58L137.24 191.84ZM131.34 192.99L133.54 192.55L133.69 193.29L131.49 193.73L131.34 192.99ZM125.51 194.19L127.68 193.73L127.83 194.46L125.66 194.92L125.51 194.19ZM119.63 195.48L121.88 194.98L122.04 195.71L119.79 196.21L119.63 195.48ZM113.7 196.85L115.91 196.33L116.08 197.06L113.87 197.58L113.7 196.85ZM107.87 198.27L110.04 197.73L110.22 198.46L108.05 199L107.87 198.27ZM102.15 199.75L104.28 199.19L104.47 199.92L102.34 200.48L102.15 199.75ZM96.2899 201.35L98.5199 200.73L98.7199 201.45L96.4899 202.07L96.2899 201.35ZM90.4399 203.04L92.6099 202.4L92.8199 203.12L90.6499 203.76L90.4399 203.04ZM84.7399 204.79L86.8599 204.13L87.0799 204.85L84.9599 205.51L84.7399 204.79ZM79.1599 206.6L81.2499 205.91L81.4899 206.62L79.3999 207.31L79.1599 206.6ZM73.3099 208.62L75.4799 207.86L75.7299 208.57L73.5599 209.33L73.3099 208.62ZM67.6499 210.7L69.7499 209.91L70.0099 210.61L67.9099 211.4L67.6499 210.7ZM62.1899 212.84L64.2099 212.03L64.4899 212.73L62.4699 213.54L62.1899 212.84ZM56.5399 215.2C57.2499 214.89 57.9699 214.59 58.6899 214.28L58.9799 214.97C58.2599 215.27 57.5499 215.58 56.8399 215.88L56.5399 215.19V215.2ZM50.9999 217.68C51.6799 217.37 52.3599 217.05 53.0499 216.74L53.3599 217.42C52.6699 217.73 51.9899 218.04 51.3199 218.35L50.9999 217.67V217.68ZM45.7199 220.22C46.3599 219.9 47.0099 219.58 47.6599 219.26L47.9899 219.93C47.3399 220.25 46.6899 220.56 46.0499 220.88L45.7099 220.21L45.7199 220.22ZM40.2799 223.05C40.9599 222.68 41.6499 222.31 42.3499 221.95L42.6999 222.61C42.0099 222.97 41.3199 223.34 40.6399 223.71L40.2799 223.05ZM35.0199 226.03C35.6499 225.65 36.2999 225.28 36.9499 224.91L37.3199 225.56C36.6699 225.93 36.0299 226.3 35.3999 226.68L35.0199 226.03ZM30.0799 229.09C30.6799 228.7 31.2999 228.31 31.9199 227.92L32.3199 228.56C31.6999 228.95 31.0899 229.34 30.4899 229.73L30.0799 229.1V229.09ZM24.9299 232.63C25.5399 232.18 26.1699 231.74 26.7999 231.3L27.2299 231.92C26.5999 232.36 25.9799 232.8 25.3699 233.24L24.9299 232.63ZM20.2799 236.2C20.8299 235.75 21.3899 235.3 21.9699 234.85L22.4299 235.44C21.8599 235.88 21.2999 236.33 20.7599 236.78L20.2899 236.2H20.2799ZM15.6499 240.26C16.2099 239.73 16.7799 239.21 17.3699 238.68L17.8699 239.24C17.2899 239.76 16.7199 240.28 16.1599 240.8L15.6499 240.25V240.26ZM11.5199 244.49C11.9999 243.96 12.4899 243.43 12.9899 242.9L13.5299 243.42C13.0299 243.94 12.5499 244.47 12.0799 244.99L11.5199 244.49ZM7.65989 249.26C8.10989 248.64 8.56988 248.02 9.05988 247.41L9.64989 247.87C9.16989 248.48 8.70988 249.09 8.26988 249.7L7.65989 249.26ZM4.51988 254.24C4.85988 253.61 5.22989 252.98 5.60989 252.35L6.24989 252.74C5.86989 253.36 5.51989 253.98 5.17989 254.6L4.51988 254.24ZM1.99989 259.86C2.24989 259.16 2.51989 258.46 2.81989 257.76L3.50989 258.05C3.21989 258.73 2.94988 259.42 2.70988 260.11L1.99989 259.86ZM0.499886 265.71C0.619886 264.95 0.769888 264.19 0.939888 263.44L1.66988 263.61C1.49988 264.35 1.34988 265.09 1.23988 265.83L0.499886 265.71ZM0.149887 271.68C0.129887 271.29 0.129883 270.89 0.129883 270.5C0.129883 270.15 0.129887 269.8 0.149887 269.45L0.899887 269.48C0.889887 269.82 0.879883 270.16 0.879883 270.5C0.879883 270.88 0.879887 271.27 0.899887 271.65L0.149887 271.68ZM0.979889 277.7C0.799889 276.94 0.649882 276.19 0.519882 275.43L1.25989 275.31C1.37989 276.05 1.52988 276.79 1.69988 277.53L0.969887 277.7H0.979889ZM2.86989 283.37C2.56989 282.67 2.29989 281.97 2.04989 281.27L2.75989 281.02C3.00989 281.71 3.26989 282.39 3.56989 283.08L2.87988 283.38L2.86989 283.37ZM5.66988 288.76C5.28988 288.14 4.91989 287.51 4.57989 286.89L5.23988 286.53C5.57988 287.14 5.92988 287.76 6.30988 288.37L5.66988 288.76ZM9.13988 293.7C8.64989 293.08 8.17989 292.47 7.72989 291.85L8.33988 291.41C8.77988 292.02 9.23989 292.63 9.72989 293.24L9.13988 293.71V293.7ZM13.0799 298.19C12.5699 297.66 12.0799 297.13 11.5999 296.6L12.1599 296.1C12.6299 296.63 13.1199 297.15 13.6199 297.67L13.0799 298.19ZM17.4799 302.41C16.8899 301.89 16.3099 301.36 15.7499 300.83L16.2599 300.28C16.8199 300.8 17.3899 301.32 17.9699 301.84L17.4699 302.4L17.4799 302.41ZM22.0699 306.22C21.4999 305.77 20.9299 305.32 20.3799 304.87L20.8499 304.29C21.3999 304.74 21.9599 305.18 22.5299 305.63L22.0699 306.22ZM26.9199 309.78C26.2799 309.34 25.6599 308.9 25.0399 308.45L25.4799 307.84C26.0899 308.28 26.7099 308.72 27.3399 309.16L26.9099 309.78H26.9199ZM32.0299 313.15C31.4099 312.76 30.7999 312.38 30.1999 311.99L30.6099 311.36C31.2099 311.75 31.8099 312.13 32.4299 312.52L32.0299 313.16V313.15ZM37.0599 316.16C36.4099 315.79 35.7599 315.41 35.1299 315.04L35.5099 314.39C36.1399 314.76 36.7799 315.14 37.4299 315.51L37.0599 316.16ZM42.4699 319.12C41.7699 318.75 41.0799 318.39 40.3999 318.02L40.7599 317.36C41.4399 317.73 42.1299 318.09 42.8199 318.46L42.4699 319.12ZM47.7799 321.8C47.1199 321.48 46.4799 321.16 45.8299 320.84L46.1599 320.17C46.7999 320.49 47.4499 320.81 48.0999 321.12L47.7699 321.79L47.7799 321.8ZM53.1599 324.31C52.4699 324 51.7899 323.69 51.1099 323.37L51.4299 322.69C52.0999 323 52.7899 323.31 53.4699 323.62L53.1599 324.3V324.31ZM58.8099 326.77C58.0899 326.47 57.3699 326.16 56.6599 325.85L56.9599 325.16C57.6699 325.47 58.3799 325.77 59.0999 326.07L58.8099 326.76V326.77ZM64.3299 329.02L62.3099 328.21L62.5899 327.51L64.6099 328.32L64.3299 329.02ZM69.8699 331.13L67.7699 330.35L68.0299 329.65L70.1299 330.43L69.8699 331.13ZM75.6099 333.18L73.4399 332.42L73.6899 331.71L75.8599 332.47L75.6099 333.18ZM81.3699 335.12L79.2899 334.43L79.5299 333.72L81.6099 334.41L81.3699 335.12ZM86.9799 336.91L84.8599 336.25L85.0799 335.53L87.1999 336.19L86.9799 336.91ZM92.7499 338.63L90.5699 337.99L90.7799 337.27L92.9599 337.91L92.7499 338.63ZM98.6499 340.3L96.4199 339.68L96.6199 338.96L98.8499 339.58L98.6499 340.3ZM104.4 341.84L102.27 341.28L102.46 340.55L104.59 341.11L104.4 341.84ZM110.17 343.3L108 342.76L108.18 342.03L110.35 342.57L110.17 343.3ZM116.04 344.7L113.83 344.18L114 343.45L116.21 343.97L116.04 344.7ZM122.01 346.05L119.76 345.55L119.92 344.82L122.17 345.32L122.01 346.05ZM127.82 347.29L125.65 346.83L125.8 346.1L127.97 346.56L127.82 347.29ZM133.67 348.47L131.47 348.03L131.62 347.29L133.82 347.73L133.67 348.47ZM139.59 349.6L137.36 349.18L137.5 348.44L139.73 348.86L139.59 349.6ZM145.58 350.67L143.33 350.27L143.46 349.53L145.71 349.93L145.58 350.67ZM151.47 351.66L149.27 351.3L149.39 350.56L151.59 350.92L151.47 351.66ZM157.38 352.6L155.16 352.25L155.28 351.51L157.5 351.86L157.38 352.6ZM163.33 353.48L161.1 353.15L161.21 352.41L163.44 352.74L163.33 353.48ZM169.31 354.32L167.06 354.01L167.16 353.27L169.41 353.58L169.31 354.32ZM175.27 355.09L173.04 354.81L173.13 354.07L175.36 354.35L175.27 355.09ZM181.22 355.81L178.99 355.55L179.08 354.81L181.31 355.07L181.22 355.81ZM187.19 356.49L184.95 356.24L185.03 355.49L187.27 355.74L187.19 356.49ZM193.17 357.11L190.93 356.88L191.01 356.13L193.25 356.36L193.17 357.11ZM199.16 357.68L196.91 357.47L196.98 356.72L199.23 356.93L199.16 357.68ZM205.15 358.2L202.9 358.01L202.96 357.26L205.21 357.45L205.15 358.2ZM211.14 358.67L208.9 358.5L208.96 357.75L211.2 357.92L211.14 358.67ZM217.12 359.1L214.88 358.95L214.93 358.2L217.17 358.35L217.12 359.1ZM223.11 359.48L220.85 359.34L220.9 358.59L223.16 358.73L223.11 359.48ZM229.14 359.81L226.88 359.69L226.92 358.94L229.18 359.06L229.14 359.81ZM235.15 360.1L232.9 360L232.93 359.25L235.18 359.35L235.15 360.1ZM241.13 360.34L238.89 360.26L238.92 359.51L241.16 359.59L241.13 360.34ZM247.1 360.54L244.85 360.47L244.87 359.72L247.12 359.79L247.1 360.54ZM253.16 360.69L250.89 360.64L250.91 359.89L253.18 359.94L253.16 360.69ZM259.18 360.8L256.93 360.77V360.02L259.19 360.05V360.8H259.18ZM265.16 360.86L262.93 360.84V360.09L265.17 360.11V360.86H265.16ZM271.09 360.87H270.5H268.87V360.12H270.5H271.09V360.87ZM277.02 360.85H274.79V360.11H277.02V360.85ZM283.01 360.78L280.76 360.81V360.06L283 360.03V360.78H283.01ZM289.04 360.66L286.77 360.71L286.75 359.96L289.02 359.91L289.04 360.66ZM295.1 360.5L292.83 360.57L292.81 359.82L295.08 359.75L295.1 360.5ZM301.05 360.3L298.81 360.38L298.78 359.63L301.02 359.55L301.05 360.3ZM307.04 360.05L304.79 360.15L304.76 359.4L307.01 359.3L307.04 360.05ZM313.05 359.75L310.79 359.87L310.75 359.12L313.01 359L313.05 359.75ZM319.08 359.41L316.82 359.54L316.78 358.79L319.04 358.66L319.08 359.41ZM325.06 359.02L322.82 359.17L322.77 358.42L325.01 358.27L325.06 359.02ZM331.04 358.58L328.8 358.75L328.74 358L330.98 357.83L331.04 358.58ZM337.03 358.1L334.78 358.29L334.72 357.54L336.97 357.35L337.03 358.1ZM343.03 357.57L340.78 357.78L340.71 357.03L342.96 356.82L343.03 357.57ZM349.02 356.99L346.78 357.21L346.71 356.46L348.95 356.24L349.02 356.99ZM354.99 356.36L352.75 356.6L352.67 355.85L354.91 355.61L354.99 356.36ZM360.96 355.68L358.73 355.94L358.64 355.2L360.87 354.94L360.96 355.68ZM366.91 354.94L364.68 355.22L364.59 354.48L366.82 354.2L366.91 354.94ZM372.88 354.16L370.63 354.46L370.53 353.72L372.78 353.42L372.88 354.16ZM378.86 353.31L376.62 353.63L376.51 352.89L378.75 352.57L378.86 353.31ZM384.8 352.42L382.58 352.76L382.47 352.02L384.69 351.68L384.8 352.42ZM390.7 351.47L388.49 351.83L388.37 351.09L390.58 350.73L390.7 351.47ZM396.61 350.46L394.36 350.85L394.23 350.11L396.48 349.72L396.61 350.46ZM402.59 349.38L400.36 349.79L400.22 349.05L402.45 348.64L402.59 349.38ZM408.5 348.24L406.29 348.67L406.15 347.93L408.36 347.5L408.5 348.24ZM414.34 347.05L412.16 347.5L412.01 346.77L414.19 346.32L414.34 347.05ZM420.18 345.79L417.95 346.28L417.79 345.55L420.02 345.06L420.18 345.79ZM426.13 344.43L423.91 344.95L423.74 344.22L425.96 343.7L426.13 344.43ZM431.98 343.02L429.8 343.56L429.62 342.83L431.8 342.29L431.98 343.02ZM437.73 341.55L435.59 342.11L435.4 341.38L437.54 340.82L437.73 341.55ZM443.53 339.98L441.29 340.59L441.09 339.87L443.33 339.26L443.53 339.98ZM449.41 338.3L447.23 338.94L447.02 338.22L449.2 337.58L449.41 338.3ZM455.14 336.56L453.01 337.22L452.79 336.5L454.92 335.84L455.14 336.56ZM460.72 334.77L458.65 335.45L458.42 334.74L460.49 334.06L460.72 334.77ZM466.54 332.78L464.36 333.54L464.11 332.83L466.29 332.07L466.54 332.78ZM472.24 330.71L470.13 331.49L469.87 330.79L471.98 330.01L472.24 330.71ZM477.74 328.59L475.7 329.39L475.43 328.69L477.47 327.89L477.74 328.59ZM483.33 326.29C482.61 326.6 481.89 326.9 481.16 327.2L480.87 326.51C481.6 326.21 482.32 325.91 483.03 325.6L483.32 326.29H483.33ZM488.93 323.82C488.25 324.13 487.56 324.44 486.86 324.75L486.55 324.06C487.24 323.75 487.93 323.44 488.61 323.13L488.92 323.81L488.93 323.82ZM494.25 321.29C493.6 321.61 492.95 321.93 492.29 322.24L491.97 321.56C492.63 321.24 493.28 320.93 493.93 320.61L494.26 321.28L494.25 321.29ZM499.63 318.53C498.94 318.9 498.24 319.26 497.54 319.63L497.2 318.96C497.9 318.6 498.6 318.23 499.28 317.87L499.63 318.53ZM504.97 315.56C504.33 315.93 503.67 316.31 503.01 316.68L502.64 316.03C503.3 315.66 503.95 315.29 504.59 314.92L504.97 315.57V315.56ZM509.93 312.54C509.33 312.92 508.73 313.3 508.11 313.68L507.72 313.04C508.33 312.66 508.93 312.29 509.53 311.91L509.93 312.54ZM515.09 309.08C514.46 309.52 513.83 309.97 513.18 310.41L512.76 309.79C513.4 309.35 514.04 308.91 514.66 308.47L515.09 309.08ZM519.84 305.51C519.28 305.96 518.7 306.41 518.12 306.85L517.67 306.25C518.25 305.81 518.82 305.36 519.38 304.92L519.85 305.51H519.84ZM524.45 301.58C523.87 302.11 523.28 302.63 522.68 303.16L522.19 302.59C522.79 302.07 523.38 301.55 523.95 301.03L524.46 301.58H524.45ZM528.71 297.35C528.22 297.88 527.71 298.41 527.19 298.94L526.66 298.41C527.18 297.89 527.68 297.36 528.16 296.84L528.71 297.35ZM532.62 292.72C532.15 293.34 531.66 293.96 531.16 294.57L530.58 294.09C531.08 293.48 531.56 292.87 532.02 292.26L532.62 292.71V292.72ZM535.91 287.78C535.55 288.4 535.17 289.02 534.78 289.63L534.15 289.22C534.54 288.61 534.91 288.01 535.27 287.4L535.92 287.78H535.91ZM538.59 282.25C538.32 282.95 538.02 283.65 537.69 284.35L537.01 284.04C537.33 283.35 537.62 282.67 537.89 281.98L538.59 282.25ZM540.28 276.5C540.13 277.26 539.95 278.02 539.74 278.77L539.02 278.57C539.22 277.83 539.4 277.09 539.54 276.35L540.28 276.5Z" fill="#0D1520"/>
<path opacity="0.22" d="M450.5 270.5C450.5 274.92 450.43 279.33 450.28 283.75C450.14 288.16 449.92 292.57 449.63 296.97C449.34 301.37 448.98 305.75 448.55 310.12C448.12 314.49 447.61 318.84 447.04 323.18C446.47 327.52 445.82 331.82 445.1 336.11C444.38 340.4 443.6 344.65 442.74 348.88C441.88 353.11 440.96 357.3 439.97 361.46C438.98 365.62 437.92 369.74 436.79 373.82C435.66 377.9 434.47 381.94 433.21 385.94C431.95 389.93 430.63 393.88 429.24 397.78C427.85 401.68 426.4 405.52 424.89 409.31C423.38 413.1 421.8 416.83 420.16 420.51C418.52 424.18 416.83 427.8 415.07 431.34C413.32 434.89 411.5 438.37 409.63 441.79C407.76 445.21 405.84 448.55 403.86 451.82C401.88 455.09 399.85 458.29 397.77 461.42C395.69 464.55 393.55 467.59 391.37 470.56C389.19 473.53 386.96 476.41 384.68 479.22C382.4 482.02 380.08 484.74 377.72 487.37C375.36 490 372.95 492.55 370.5 495C368.05 497.45 365.56 499.82 363.04 502.09C360.52 504.36 357.95 506.54 355.35 508.62C352.75 510.7 350.12 512.69 347.46 514.58C344.8 516.47 342.1 518.26 339.38 519.95C336.66 521.64 333.91 523.23 331.14 524.72C328.37 526.21 325.57 527.59 322.75 528.88C319.93 530.16 317.09 531.34 314.24 532.41C311.38 533.48 308.51 534.45 305.62 535.31C302.73 536.17 299.83 536.93 296.92 537.58C294.01 538.23 291.08 538.77 288.15 539.2C285.22 539.63 282.28 539.96 279.34 540.17C276.4 540.39 273.45 540.5 270.51 540.5C267.57 540.5 264.62 540.39 261.68 540.17C258.74 539.95 255.8 539.63 252.87 539.2C249.94 538.77 247.02 538.23 244.1 537.58C241.19 536.93 238.28 536.18 235.4 535.31C232.51 534.45 229.64 533.48 226.78 532.41C223.92 531.34 221.08 530.16 218.27 528.88C215.45 527.6 212.65 526.21 209.88 524.72C207.11 523.23 204.36 521.64 201.64 519.95C198.92 518.26 196.23 516.47 193.56 514.58C190.9 512.69 188.27 510.7 185.67 508.62C183.07 506.54 180.51 504.36 177.98 502.09C175.45 499.82 172.97 497.45 170.52 495C168.07 492.55 165.66 490 163.3 487.37C160.93 484.74 158.61 482.02 156.34 479.22C154.06 476.42 151.83 473.53 149.65 470.56C147.47 467.59 145.33 464.55 143.25 461.42C141.17 458.29 139.14 455.1 137.16 451.82C135.18 448.55 133.26 445.2 131.39 441.79C129.52 438.37 127.71 434.89 125.95 431.34C124.2 427.79 122.5 424.18 120.86 420.51C119.22 416.84 117.65 413.1 116.13 409.31C114.62 405.52 113.16 401.68 111.78 397.78C110.4 393.88 109.07 389.94 107.81 385.94C106.55 381.95 105.36 377.91 104.23 373.82C103.1 369.74 102.04 365.62 101.05 361.46C100.06 357.3 99.13 353.11 98.28 348.88C97.42 344.65 96.64 340.39 95.92 336.11C95.2 331.82 94.56 327.51 93.98 323.18C93.41 318.85 92.9 314.49 92.47 310.12C92.04 305.75 91.68 301.36 91.39 296.97C91.1 292.57 90.88 288.17 90.74 283.75C90.6 279.34 90.52 274.92 90.52 270.5C90.52 266.08 90.59 261.67 90.74 257.25C90.88 252.84 91.1 248.43 91.39 244.03C91.68 239.63 92.04 235.25 92.47 230.88C92.9 226.51 93.41 222.16 93.98 217.82C94.55 213.49 95.2 209.18 95.92 204.89C96.64 200.6 97.42 196.35 98.28 192.12C99.14 187.89 100.06 183.7 101.05 179.54C102.04 175.38 103.1 171.26 104.23 167.18C105.36 163.1 106.55 159.06 107.81 155.06C109.07 151.07 110.39 147.12 111.78 143.22C113.17 139.32 114.62 135.48 116.13 131.69C117.64 127.9 119.22 124.17 120.86 120.49C122.5 116.82 124.19 113.2 125.95 109.66C127.7 106.11 129.52 102.63 131.39 99.21C133.26 95.79 135.18 92.45 137.16 89.18C139.14 85.91 141.17 82.71 143.25 79.58C145.33 76.46 147.47 73.41 149.65 70.44C151.83 67.47 154.06 64.59 156.34 61.78C158.62 58.98 160.94 56.26 163.3 53.63C165.67 51 168.07 48.45 170.52 46C172.97 43.55 175.46 41.18 177.98 38.91C180.51 36.64 183.07 34.46 185.67 32.38C188.27 30.3 190.9 28.31 193.56 26.42C196.22 24.53 198.92 22.74 201.64 21.05C204.36 19.36 207.11 17.77 209.88 16.28C212.65 14.79 215.45 13.41 218.27 12.12C221.09 10.84 223.93 9.66 226.78 8.59C229.64 7.52 232.51 6.55 235.4 5.69C238.29 4.83 241.19 4.07 244.1 3.42C247.01 2.77 249.94 2.23 252.87 1.8C255.8 1.37 258.74 1.04 261.68 0.830002C264.62 0.610002 267.57 0.5 270.51 0.5C273.45 0.5 276.4 0.610002 279.34 0.830002C282.28 1.05 285.22 1.37 288.15 1.8C291.08 2.23 294 2.77 296.92 3.42C299.83 4.07 302.74 4.82 305.62 5.69C308.5 6.56 311.38 7.52 314.24 8.59C317.1 9.66 319.94 10.84 322.75 12.12C325.56 13.4 328.37 14.79 331.14 16.28C333.91 17.77 336.66 19.36 339.38 21.05C342.1 22.74 344.79 24.53 347.46 26.42C350.12 28.31 352.75 30.3 355.35 32.38C357.95 34.46 360.51 36.64 363.04 38.91C365.57 41.18 368.05 43.55 370.5 46C372.95 48.45 375.36 51 377.72 53.63C380.08 56.26 382.41 58.98 384.68 61.78C386.96 64.58 389.19 67.47 391.37 70.44C393.55 73.41 395.69 76.45 397.77 79.58C399.85 82.7 401.88 85.9 403.86 89.18C405.84 92.45 407.76 95.8 409.63 99.21C411.5 102.63 413.31 106.11 415.07 109.66C416.82 113.21 418.52 116.82 420.16 120.49C421.8 124.16 423.37 127.9 424.89 131.69C426.41 135.48 427.86 139.32 429.24 143.22C430.63 147.12 431.95 151.06 433.21 155.06C434.47 159.05 435.66 163.09 436.79 167.18C437.92 171.26 438.98 175.38 439.97 179.54C440.96 183.7 441.89 187.89 442.74 192.12C443.59 196.35 444.38 200.61 445.1 204.89C445.82 209.17 446.46 213.49 447.04 217.82C447.61 222.15 448.12 226.51 448.55 230.88C448.98 235.25 449.34 239.64 449.63 244.03C449.92 248.43 450.14 252.83 450.28 257.25C450.42 261.66 450.5 266.08 450.5 270.5Z" stroke="#0D1520" stroke-width="0.75"/>
<path opacity="0.2" d="M405.69 504.65C405.05 505.02 404.4 505.38 403.76 505.74L403.4 505.08C404.04 504.72 404.68 504.36 405.32 503.99L405.7 504.64L405.69 504.65ZM410.19 501.92C409.56 502.32 408.93 502.72 408.29 503.1L407.9 502.46C408.53 502.07 409.16 501.68 409.79 501.28L410.19 501.91V501.92ZM415.19 498.56C414.57 499 413.95 499.43 413.33 499.86L412.91 499.24C413.53 498.82 414.15 498.39 414.76 497.95L415.19 498.56ZM420.05 494.92C419.46 495.39 418.86 495.85 418.26 496.3L417.81 495.7C418.41 495.25 419 494.79 419.59 494.33L420.05 494.92ZM424.63 491.13C424.07 491.62 423.5 492.11 422.92 492.59L422.44 492.02C423.01 491.54 423.57 491.06 424.14 490.57L424.63 491.14V491.13ZM429.1 487.05C428.55 487.58 428 488.1 427.44 488.61L426.93 488.06C427.48 487.55 428.03 487.03 428.58 486.51L429.1 487.05ZM433.36 482.77C432.85 483.31 432.34 483.84 431.82 484.36L431.29 483.83C431.8 483.31 432.31 482.78 432.82 482.25L433.36 482.77ZM437.37 478.36C436.88 478.93 436.38 479.49 435.89 480.04L435.33 479.54C435.83 478.99 436.32 478.43 436.81 477.87L437.38 478.36H437.37ZM441.23 473.69C440.76 474.29 440.28 474.88 439.8 475.47L439.22 475C439.7 474.42 440.17 473.82 440.64 473.23L441.23 473.7V473.69ZM444.87 468.87C444.44 469.47 444.01 470.06 443.57 470.65L442.97 470.2C443.41 469.62 443.84 469.03 444.27 468.43L444.88 468.87H444.87ZM448.24 463.98C447.83 464.61 447.41 465.23 446.99 465.84L446.37 465.42C446.79 464.81 447.2 464.19 447.61 463.57L448.24 463.98ZM451.47 458.85C451.08 459.5 450.68 460.15 450.28 460.8L449.64 460.4C450.04 459.76 450.43 459.11 450.83 458.46L451.47 458.85ZM454.49 453.59C454.13 454.24 453.77 454.89 453.4 455.54L452.75 455.17C453.11 454.53 453.47 453.88 453.83 453.23L454.49 453.59ZM457.24 448.34C456.91 449.01 456.57 449.67 456.23 450.33L455.56 449.99C455.9 449.33 456.24 448.67 456.57 448.01L457.24 448.35V448.34ZM459.83 442.89C459.52 443.58 459.2 444.27 458.88 444.95L458.2 444.63C458.52 443.95 458.84 443.26 459.15 442.58L459.83 442.89ZM462.26 437.26C461.97 437.98 461.67 438.69 461.37 439.39L460.68 439.1C460.98 438.4 461.28 437.69 461.57 436.98L462.26 437.26ZM464.41 431.76C464.15 432.46 463.89 433.15 463.62 433.84L462.92 433.57C463.18 432.88 463.45 432.19 463.7 431.5L464.4 431.76H464.41ZM466.39 426.11C466.15 426.83 465.91 427.54 465.66 428.25L464.95 428C465.2 427.29 465.44 426.58 465.67 425.87L466.38 426.11H466.39ZM468.22 420.31C468 421.04 467.78 421.77 467.55 422.5L466.83 422.28C467.06 421.56 467.28 420.83 467.49 420.1L468.21 420.31H468.22ZM469.85 414.5C469.66 415.21 469.47 415.92 469.28 416.63L468.56 416.43C468.75 415.73 468.95 415.02 469.13 414.31L469.86 414.5H469.85ZM471.28 408.74C471.11 409.47 470.94 410.19 470.76 410.92L470.03 410.74C470.21 410.02 470.38 409.3 470.55 408.57L471.28 408.74ZM472.56 402.85C472.41 403.59 472.26 404.33 472.1 405.07L471.37 404.91C471.53 404.17 471.68 403.44 471.83 402.7L472.57 402.85H472.56ZM473.68 396.85C473.55 397.61 473.42 398.36 473.28 399.11L472.54 398.97C472.68 398.22 472.81 397.47 472.94 396.71L473.68 396.84V396.85ZM474.61 390.96C474.5 391.69 474.39 392.43 474.28 393.15L473.54 393.04C473.65 392.31 473.76 391.58 473.87 390.85L474.61 390.96ZM475.39 385.04C475.3 385.78 475.21 386.53 475.12 387.27L474.38 387.17C474.47 386.43 474.57 385.69 474.65 384.95L475.39 385.04ZM476.03 379.04C475.96 379.79 475.89 380.55 475.81 381.3L475.06 381.22C475.14 380.47 475.21 379.72 475.28 378.97L476.03 379.04ZM476.51 372.96C476.46 373.73 476.4 374.49 476.34 375.25L475.59 375.19C475.65 374.43 475.7 373.67 475.75 372.91L476.5 372.96H476.51ZM476.84 367.02C476.81 367.76 476.77 368.5 476.73 369.25L475.98 369.21C476.02 368.47 476.05 367.73 476.09 366.99L476.84 367.02ZM477.03 361.04C477.01 361.79 477 362.54 476.97 363.29L476.22 363.27C476.24 362.52 476.26 361.78 476.28 361.03L477.03 361.05V361.04ZM477.09 355.01C477.09 355.77 477.09 356.52 477.09 357.28H476.34C476.34 356.52 476.34 355.77 476.34 355.01H477.09ZM477.01 348.93C477.03 349.69 477.04 350.45 477.06 351.22H476.31C476.3 350.47 476.28 349.71 476.26 348.95L477.01 348.93ZM476.8 342.97L476.89 345.2L476.14 345.23L476.05 343L476.8 342.97ZM476.47 336.99L476.61 339.23L475.86 339.28L475.72 337.04L476.47 336.99ZM476.01 330.99L476.2 333.24L475.45 333.3L475.26 331.05L476.01 330.99ZM475.43 324.96L475.66 327.22L474.91 327.3L474.68 325.04L475.43 324.96ZM474.73 319L475 321.22L474.26 321.31L473.99 319.09L474.73 319ZM473.92 313.07L474.24 315.29L473.5 315.4L473.18 313.18L473.92 313.07ZM473 307.12L473.36 309.35L472.62 309.47L472.26 307.24L473 307.12ZM471.97 301.18L472.37 303.41L471.63 303.54L471.23 301.31L471.97 301.18ZM470.83 295.27L471.27 297.47L470.53 297.62L470.09 295.42L470.83 295.27ZM469.58 289.4L470.06 291.6L469.33 291.76L468.85 289.56L469.58 289.4ZM468.24 283.54L468.76 285.73L468.03 285.9L467.51 283.71L468.24 283.54ZM466.79 277.7L467.34 279.88L466.61 280.06L466.06 277.88L466.79 277.7ZM465.25 271.89L465.84 274.07L465.12 274.27L464.53 272.09L465.25 271.89ZM463.61 266.1L464.24 268.26L463.52 268.47L462.89 266.3L463.61 266.09V266.1ZM461.87 260.34L462.53 262.49L461.81 262.71L461.15 260.56L461.87 260.34ZM460.04 254.62L460.73 256.76L460.02 256.99L459.33 254.85L460.04 254.62ZM458.13 248.94L458.86 251.06L458.15 251.3L457.42 249.18L458.13 248.94ZM456.11 243.26L456.88 245.39L456.17 245.64L455.4 243.51L456.11 243.26ZM454.01 237.61L454.81 239.72L454.11 239.99L453.31 237.88L454.01 237.61ZM451.83 232.02L452.66 234.11L451.96 234.39L451.13 232.3L451.83 232.02ZM449.57 226.48L450.43 228.55L449.74 228.84L448.88 226.77L449.57 226.48ZM447.2 220.94L448.1 223.03L447.41 223.33L446.51 221.24L447.2 220.94ZM444.75 215.42L445.68 217.48L445 217.79L444.07 215.73L444.75 215.42ZM442.23 209.96L443.18 211.99L442.5 212.31L441.55 210.28L442.23 209.96ZM439.64 204.58L440.62 206.59L439.95 206.92L438.97 204.91L439.64 204.58ZM436.96 199.21L437.99 201.25L437.32 201.59L436.29 199.55L436.96 199.21ZM434.17 193.83L435.22 195.84L434.56 196.19L433.51 194.18L434.17 193.83ZM431.33 188.53L432.4 190.5L431.74 190.86L430.67 188.89L431.33 188.53ZM428.43 183.32L429.52 185.26L428.87 185.63L427.78 183.69L428.43 183.32ZM425.48 178.19L426.59 180.11L425.94 180.49L424.83 178.57L425.48 178.19ZM422.43 173.08L423.58 175L422.94 175.39L421.79 173.47L422.43 173.08ZM419.28 167.97L420.47 169.88L419.83 170.28L418.64 168.37L419.28 167.97ZM416.04 162.86L417.27 164.77L416.64 165.18L415.41 163.27L416.04 162.86ZM412.72 157.82L413.95 159.67L413.33 160.08L412.1 158.23L412.72 157.82ZM409.37 152.89L410.64 154.74L410.02 155.16L408.75 153.31L409.37 152.89ZM405.93 147.97L407.23 149.81L406.62 150.24L405.32 148.4L405.93 147.97ZM402.39 143.08L403.73 144.91L403.12 145.35L401.78 143.52L402.39 143.08ZM398.77 138.24L400.13 140.04L399.53 140.49L398.17 138.69L398.77 138.24ZM395.12 133.51L396.5 135.28L395.91 135.74L394.53 133.97L395.12 133.51ZM391.38 128.82L392.79 130.57L392.21 131.04L390.8 129.29L391.38 128.82ZM387.56 124.17L389 125.91L388.42 126.39L386.98 124.65L387.56 124.17ZM383.65 119.56L385.12 121.28L384.55 121.77L383.08 120.05L383.65 119.56ZM379.7 115.05L381.19 116.73L380.63 117.23L379.14 115.55L379.7 115.05ZM375.68 110.6L377.2 112.26L376.65 112.77L375.13 111.11L375.68 110.6ZM371.57 106.21L373.12 107.85L372.57 108.36L371.02 106.72L371.57 106.21ZM367.39 101.88L368.96 103.49L368.42 104.01L366.85 102.4L367.39 101.88ZM363.14 97.62L364.74 99.21L364.21 99.74L362.61 98.15L363.14 97.62ZM358.82 93.44L360.45 95L359.93 95.54L358.3 93.98L358.82 93.44ZM354.43 89.33L356.08 90.86L355.57 91.41L353.92 89.88L354.43 89.33ZM349.98 85.31L351.66 86.81L351.16 87.37L349.48 85.87L349.98 85.31ZM345.45 81.36L347.17 82.84L346.68 83.41L344.96 81.93L345.45 81.36ZM340.83 77.47L342.57 78.91L342.09 79.49L340.35 78.05L340.83 77.47ZM336.15 73.68L337.91 75.09L337.44 75.68L335.68 74.27L336.15 73.68ZM331.43 70L333.21 71.37L332.75 71.96L330.97 70.59L331.43 70ZM326.64 66.41L328.45 67.75L328 68.35L326.19 67.01L326.64 66.41ZM321.72 62.87L323.57 64.18L323.14 64.79L321.29 63.48L321.72 62.87ZM316.75 59.45L318.61 60.72L318.19 61.34L316.33 60.07L316.75 59.45ZM311.75 56.15L313.63 57.37L313.22 58L311.34 56.78L311.75 56.15ZM306.72 52.98C307.35 53.37 307.98 53.76 308.61 54.15L308.21 54.79C307.58 54.4 306.95 54.01 306.32 53.62L306.71 52.98H306.72ZM301.5 49.85C302.15 50.23 302.81 50.62 303.46 51.01L303.08 51.65C302.43 51.26 301.78 50.88 301.12 50.49L301.5 49.84V49.85ZM296.25 46.86C296.91 47.23 297.56 47.59 298.22 47.96L297.85 48.61C297.19 48.24 296.54 47.87 295.89 47.51L296.25 46.85V46.86ZM290.98 44.01C291.64 44.36 292.3 44.71 292.96 45.06L292.61 45.72C291.95 45.37 291.3 45.02 290.64 44.67L290.99 44.01H290.98ZM285.7 41.32C286.36 41.65 287.02 41.98 287.68 42.31L287.34 42.98C286.68 42.65 286.02 42.32 285.36 41.99L285.69 41.32H285.7ZM280.2 38.67C280.89 38.99 281.58 39.32 282.27 39.64L281.95 40.32C281.26 39.99 280.58 39.67 279.89 39.35L280.21 38.67H280.2ZM274.69 36.19C275.38 36.49 276.07 36.79 276.76 37.1L276.45 37.78C275.76 37.47 275.08 37.17 274.39 36.87L274.69 36.18V36.19ZM269.18 33.88C269.87 34.16 270.56 34.44 271.25 34.73L270.96 35.42C270.27 35.13 269.59 34.85 268.9 34.58L269.18 33.88ZM263.65 31.73C264.34 31.99 265.04 32.25 265.73 32.52L265.46 33.22C264.77 32.95 264.08 32.69 263.38 32.43L263.64 31.73H263.65ZM257.89 29.67C258.61 29.92 259.33 30.17 260.05 30.42L259.8 31.13C259.08 30.88 258.37 30.63 257.65 30.38L257.89 29.67ZM252.15 27.8C252.87 28.02 253.58 28.25 254.3 28.48L254.07 29.19C253.36 28.96 252.64 28.73 251.93 28.51L252.15 27.79V27.8ZM246.44 26.12C247.15 26.32 247.87 26.52 248.58 26.73L248.37 27.45C247.66 27.24 246.95 27.04 246.24 26.85L246.44 26.13V26.12ZM240.64 24.61C241.39 24.79 242.13 24.98 242.88 25.17L242.69 25.9C241.95 25.71 241.2 25.52 240.46 25.34L240.64 24.61ZM234.69 23.26C235.43 23.42 236.17 23.58 236.91 23.74L236.75 24.47C236.01 24.31 235.27 24.14 234.53 23.99L234.68 23.26H234.69ZM228.8 22.12C229.53 22.25 230.27 22.38 231 22.52L230.86 23.26C230.13 23.12 229.4 22.99 228.67 22.86L228.8 22.12ZM222.96 21.19C223.69 21.29 224.41 21.4 225.14 21.51L225.03 22.25C224.3 22.14 223.58 22.03 222.86 21.93L222.96 21.19ZM216.9 20.44C217.66 20.52 218.42 20.6 219.18 20.69L219.09 21.43C218.33 21.34 217.58 21.26 216.82 21.18L216.9 20.43V20.44ZM210.88 19.93C211.63 19.98 212.38 20.04 213.13 20.1L213.07 20.85C212.32 20.79 211.58 20.73 210.83 20.68L210.88 19.93ZM204.94 19.64C205.68 19.66 206.42 19.69 207.16 19.72L207.13 20.47C206.39 20.44 205.66 20.41 204.93 20.39L204.95 19.64H204.94ZM198.91 19.58C199.68 19.58 200.45 19.57 201.22 19.58V20.33C200.45 20.33 199.69 20.33 198.92 20.33V19.58H198.91ZM192.84 19.77C193.59 19.73 194.35 19.7 195.1 19.67L195.13 20.42C194.38 20.45 193.63 20.48 192.88 20.52L192.84 19.77ZM186.89 20.21C187.63 20.14 188.37 20.08 189.11 20.02L189.17 20.77C188.43 20.83 187.7 20.89 186.97 20.96L186.9 20.21H186.89ZM180.93 20.9C181.69 20.79 182.45 20.7 183.22 20.6L183.31 21.34C182.55 21.43 181.79 21.53 181.03 21.64L180.93 20.9ZM174.93 21.87C175.67 21.73 176.42 21.6 177.16 21.48L177.28 22.22C176.54 22.34 175.8 22.47 175.06 22.61L174.92 21.87H174.93ZM169.08 23.09C169.8 22.92 170.53 22.76 171.25 22.6L171.41 23.33C170.69 23.49 169.97 23.65 169.25 23.81L169.08 23.08V23.09ZM163.26 24.58C164 24.37 164.74 24.17 165.48 23.97L165.67 24.7C164.93 24.89 164.2 25.09 163.46 25.3L163.26 24.58ZM157.47 26.37C158.18 26.13 158.9 25.9 159.62 25.67L159.85 26.39C159.13 26.62 158.42 26.85 157.71 27.09L157.47 26.38V26.37ZM151.86 28.41C152.55 28.14 153.25 27.88 153.94 27.62L154.2 28.32C153.51 28.58 152.82 28.84 152.13 29.11L151.86 28.41ZM146.29 30.74C146.99 30.43 147.68 30.12 148.39 29.82L148.68 30.51C147.98 30.81 147.29 31.11 146.6 31.42L146.29 30.74ZM140.84 33.35C141.51 33.01 142.18 32.67 142.86 32.35L143.19 33.02C142.52 33.35 141.85 33.68 141.18 34.02L140.84 33.35ZM135.6 36.18C136.24 35.81 136.89 35.45 137.54 35.09L137.9 35.75C137.25 36.1 136.61 36.46 135.97 36.83L135.6 36.18ZM130.52 39.26C131.15 38.86 131.78 38.46 132.42 38.07L132.81 38.71C132.18 39.1 131.55 39.49 130.93 39.89L130.53 39.26H130.52ZM125.53 42.64C126.15 42.2 126.77 41.77 127.39 41.34L127.81 41.96C127.19 42.39 126.57 42.82 125.96 43.25L125.52 42.64H125.53ZM120.69 46.29C121.28 45.83 121.87 45.37 122.46 44.91L122.91 45.51C122.32 45.96 121.73 46.42 121.15 46.88L120.68 46.29H120.69ZM116.11 50.1C116.67 49.61 117.24 49.12 117.81 48.64L118.29 49.21C117.72 49.69 117.16 50.17 116.6 50.66L116.11 50.1ZM111.65 54.19C112.2 53.66 112.75 53.14 113.31 52.62L113.82 53.17C113.27 53.68 112.72 54.2 112.17 54.73L111.65 54.19ZM107.4 58.47C107.91 57.93 108.42 57.4 108.93 56.88L109.47 57.4C108.96 57.92 108.45 58.45 107.95 58.98L107.4 58.46V58.47ZM103.41 62.9C103.9 62.33 104.39 61.77 104.89 61.21L105.45 61.71C104.96 62.26 104.46 62.82 103.98 63.39L103.41 62.9ZM99.55 67.58C100.02 66.98 100.5 66.38 100.98 65.79L101.56 66.26C101.08 66.85 100.61 67.44 100.14 68.04L99.55 67.58ZM95.94 72.4C96.37 71.8 96.8 71.21 97.24 70.62L97.84 71.07C97.41 71.66 96.97 72.25 96.55 72.84L95.94 72.4ZM92.57 77.31C92.98 76.68 93.4 76.06 93.82 75.44L94.44 75.86C94.02 76.47 93.61 77.09 93.2 77.72L92.57 77.31ZM89.35 82.45C89.74 81.79 90.14 81.14 90.54 80.5L91.18 80.89C90.78 81.53 90.39 82.18 90 82.83L89.36 82.45H89.35ZM86.35 87.71C86.7 87.06 87.06 86.41 87.42 85.77L88.07 86.14C87.71 86.78 87.35 87.42 87 88.07L86.34 87.71H86.35ZM83.61 92.97C83.94 92.3 84.28 91.64 84.62 90.97L85.29 91.31C84.95 91.97 84.62 92.63 84.29 93.3L83.62 92.97H83.61ZM81.03 98.42C81.34 97.73 81.66 97.04 81.98 96.35L82.66 96.67C82.34 97.35 82.03 98.04 81.71 98.73L81.03 98.42ZM78.61 104.06C78.9 103.35 79.2 102.63 79.5 101.93L80.19 102.22C79.89 102.92 79.6 103.63 79.31 104.34L78.62 104.06H78.61ZM76.48 109.56C76.74 108.86 77 108.17 77.26 107.48L77.96 107.75C77.7 108.44 77.44 109.13 77.18 109.82L76.48 109.56ZM74.5 115.22C74.74 114.5 74.98 113.79 75.22 113.08L75.93 113.32C75.69 114.03 75.45 114.74 75.21 115.45L74.5 115.21V115.22ZM72.68 121.03C72.9 120.3 73.12 119.56 73.34 118.83L74.06 119.05C73.84 119.78 73.62 120.5 73.4 121.24L72.68 121.03ZM71.06 126.82C71.25 126.11 71.44 125.4 71.63 124.69L72.35 124.89C72.16 125.6 71.97 126.3 71.78 127.01L71.05 126.82H71.06ZM69.64 132.59C69.81 131.86 69.98 131.13 70.16 130.41L70.89 130.59C70.72 131.31 70.54 132.04 70.38 132.76L69.65 132.59H69.64ZM68.37 138.49C68.52 137.75 68.67 137.01 68.83 136.27L69.56 136.43C69.4 137.17 69.25 137.9 69.1 138.65L68.36 138.5L68.37 138.49ZM67.26 144.49C67.39 143.73 67.52 142.98 67.66 142.22L68.4 142.35C68.26 143.1 68.13 143.85 68 144.61L67.26 144.48V144.49ZM66.34 150.37C66.45 149.64 66.55 148.9 66.67 148.17L67.41 148.28C67.3 149.01 67.19 149.74 67.09 150.47L66.35 150.36L66.34 150.37ZM65.57 156.3C65.66 155.56 65.75 154.81 65.84 154.07L66.58 154.16C66.49 154.9 66.4 155.64 66.31 156.38L65.57 156.29V156.3ZM64.94 162.3C65.01 161.54 65.08 160.79 65.16 160.04L65.91 160.12C65.83 160.87 65.76 161.62 65.69 162.37L64.94 162.3ZM64.46 168.39C64.51 167.62 64.56 166.86 64.62 166.1L65.37 166.16C65.31 166.92 65.26 167.68 65.21 168.44L64.46 168.39ZM64.14 174.32C64.17 173.58 64.21 172.83 64.24 172.09L64.99 172.13C64.95 172.87 64.92 173.61 64.89 174.35L64.14 174.32ZM63.96 180.3C63.97 179.55 63.99 178.8 64.01 178.05L64.76 178.07C64.74 178.82 64.72 179.56 64.71 180.31H63.96V180.3ZM63.91 186.33C63.91 185.57 63.91 184.82 63.91 184.06H64.66C64.66 184.82 64.66 185.57 64.66 186.33H63.91ZM64 192.42C63.98 191.66 63.96 190.89 63.95 190.13H64.7C64.71 190.88 64.73 191.64 64.75 192.4L64 192.42ZM64.21 198.37L64.11 196.14L64.86 196.11L64.96 198.34L64.21 198.37ZM64.55 204.35L64.41 202.11L65.16 202.06L65.3 204.3L64.55 204.35ZM65.02 210.35L64.83 208.1L65.58 208.04L65.77 210.29L65.02 210.35ZM65.61 216.38L65.37 214.12L66.12 214.04L66.36 216.3L65.61 216.38ZM66.31 222.34L66.03 220.12L66.77 220.03L67.05 222.25L66.31 222.34ZM67.13 228.27L66.81 226.05L67.55 225.94L67.87 228.16L67.13 228.27ZM68.05 234.21L67.69 231.98L68.43 231.86L68.79 234.09L68.05 234.21ZM69.1 240.16L68.7 237.93L69.44 237.8L69.84 240.03L69.1 240.16ZM70.24 246.06L69.8 243.86L70.54 243.71L70.98 245.91L70.24 246.06ZM71.49 251.93L71.01 249.73L71.74 249.57L72.22 251.77L71.49 251.93ZM72.84 257.79L72.32 255.6L73.05 255.43L73.57 257.62L72.84 257.79ZM74.29 263.63L73.73 261.45L74.46 261.27L75.02 263.45L74.29 263.63ZM75.84 269.44L75.25 267.26L75.97 267.06L76.56 269.24L75.84 269.44ZM77.49 275.23L76.86 273.07L77.58 272.86L78.21 275.02L77.49 275.23ZM79.23 280.98L78.57 278.83L79.29 278.61L79.95 280.76L79.23 280.98ZM81.06 286.7L80.36 284.56L81.07 284.33L81.77 286.47L81.06 286.7ZM82.98 292.38L82.25 290.26L82.96 290.02L83.69 292.14L82.98 292.38ZM85.01 298.07L84.24 295.94L84.95 295.69L85.72 297.82L85.01 298.07ZM87.11 303.71L86.31 301.6L87.01 301.33L87.81 303.44L87.11 303.71ZM89.3 309.3L88.47 307.21L89.17 306.93L90 309.02L89.3 309.3ZM91.56 314.83L90.7 312.76L91.39 312.47L92.25 314.54L91.56 314.83ZM93.93 320.38L93.03 318.3L93.72 318L94.62 320.08L93.93 320.38ZM96.39 325.9L95.46 323.84L96.14 323.53L97.07 325.59L96.39 325.9ZM98.92 331.34L97.97 329.31L98.65 328.99L99.6 331.02L98.92 331.34ZM101.51 336.72L100.53 334.71L101.2 334.38L102.18 336.39L101.51 336.72ZM104.2 342.1L103.17 340.07L103.84 339.73L104.87 341.76L104.2 342.1ZM106.99 347.48L105.94 345.48L106.6 345.13L107.65 347.13L106.99 347.48ZM109.84 352.77L108.77 350.8L109.43 350.44L110.5 352.41L109.84 352.77ZM112.74 357.97L111.65 356.03L112.3 355.66L113.39 357.6L112.74 357.97ZM115.69 363.1L114.57 361.18L115.22 360.8L116.34 362.72L115.69 363.1ZM118.74 368.21L117.59 366.29L118.23 365.9L119.38 367.82L118.74 368.21ZM121.9 373.32L120.71 371.41L121.35 371.01L122.54 372.92L121.9 373.32ZM125.15 378.43L123.92 376.52L124.55 376.11L125.78 378.02L125.15 378.43ZM128.46 383.46L127.23 381.61L127.85 381.19L129.08 383.04L128.46 383.46ZM131.82 388.39L130.55 386.54L131.17 386.12L132.44 387.97L131.82 388.39ZM135.27 393.31L133.97 391.47L134.58 391.04L135.88 392.88L135.27 393.31ZM138.82 398.19L137.48 396.36L138.09 395.92L139.43 397.75L138.82 398.19ZM142.43 403.02L141.08 401.23L141.68 400.78L143.03 402.57L142.43 403.02ZM146.09 407.75L144.71 405.98L145.3 405.52L146.68 407.29L146.09 407.75ZM149.83 412.45L148.42 410.7L149 410.23L150.41 411.98L149.83 412.45ZM153.66 417.1L152.22 415.36L152.8 414.88L154.24 416.62L153.66 417.1ZM157.57 421.7L156.1 419.98L156.67 419.49L158.14 421.21L157.57 421.7ZM161.52 426.2L160.03 424.52L160.59 424.02L162.08 425.7L161.52 426.2ZM165.55 430.65L164.03 428.99L164.58 428.48L166.1 430.14L165.55 430.65ZM169.66 435.04L168.11 433.4L168.65 432.88L170.2 434.52L169.66 435.04ZM173.85 439.36L172.27 437.75L172.81 437.23L174.39 438.84L173.85 439.36ZM178.1 443.62L176.5 442.03L177.03 441.5L178.63 443.09L178.1 443.62ZM182.43 447.8L180.8 446.24L181.32 445.7L182.95 447.26L182.43 447.8ZM186.82 451.9L185.17 450.37L185.68 449.82L187.33 451.35L186.82 451.9ZM191.28 455.92L189.6 454.42L190.1 453.86L191.78 455.36L191.28 455.92ZM195.81 459.87L194.09 458.39L194.58 457.82L196.3 459.3L195.81 459.87ZM200.44 463.75L198.7 462.31L199.18 461.73L200.92 463.17L200.44 463.75ZM205.11 467.53L203.35 466.13L203.82 465.54L205.58 466.94L205.11 467.53ZM209.84 471.21L208.06 469.84L208.52 469.25L210.3 470.62L209.84 471.21ZM214.64 474.79L212.83 473.45L213.28 472.85L215.09 474.19L214.64 474.79ZM219.56 478.33L217.71 477.02L218.14 476.41L219.99 477.72L219.56 478.33ZM224.53 481.74L222.67 480.48L223.09 479.86L224.95 481.12L224.53 481.74ZM229.53 485.03L227.65 483.81L228.06 483.18L229.94 484.4L229.53 485.03ZM234.58 488.2C233.95 487.81 233.31 487.42 232.68 487.03L233.08 486.39C233.71 486.78 234.34 487.17 234.97 487.56L234.58 488.2ZM239.8 491.32C239.15 490.94 238.49 490.55 237.84 490.16L238.22 489.52C238.87 489.91 239.52 490.29 240.18 490.67L239.8 491.32ZM245.05 494.31C244.39 493.95 243.74 493.58 243.08 493.21L243.45 492.56C244.1 492.93 244.76 493.3 245.42 493.66L245.06 494.32L245.05 494.31ZM250.32 497.14C249.66 496.79 249 496.45 248.34 496.09L248.69 495.43C249.35 495.78 250 496.13 250.66 496.47L250.31 497.13L250.32 497.14ZM255.6 499.83C254.94 499.5 254.28 499.17 253.62 498.84L253.96 498.17C254.62 498.5 255.28 498.83 255.94 499.16L255.61 499.83H255.6ZM261.11 502.47C260.42 502.15 259.73 501.83 259.04 501.5L259.36 500.82C260.05 501.15 260.73 501.47 261.42 501.79L261.1 502.47H261.11ZM266.62 504.94C265.93 504.64 265.24 504.34 264.55 504.03L264.85 503.34C265.54 503.65 266.22 503.95 266.91 504.24L266.61 504.93L266.62 504.94ZM272.14 507.25C271.45 506.97 270.76 506.69 270.07 506.41L270.36 505.72C271.05 506 271.73 506.28 272.42 506.56L272.14 507.26V507.25ZM277.68 509.39C276.98 509.13 276.28 508.87 275.58 508.6L275.85 507.9C276.55 508.17 277.24 508.43 277.94 508.69L277.68 509.39ZM283.44 511.44C282.72 511.2 282 510.95 281.28 510.69L281.53 509.98C282.25 510.23 282.96 510.48 283.68 510.72L283.44 511.43V511.44ZM289.18 513.3C288.46 513.08 287.75 512.85 287.03 512.63L287.26 511.92C287.97 512.15 288.69 512.37 289.4 512.59L289.18 513.31V513.3ZM294.89 514.97C294.18 514.77 293.47 514.57 292.75 514.37L292.96 513.65C293.67 513.85 294.38 514.05 295.09 514.25L294.89 514.97ZM300.7 516.47C299.95 516.29 299.21 516.1 298.46 515.91L298.65 515.18C299.39 515.37 300.14 515.56 300.88 515.74L300.7 516.47ZM306.64 517.82C305.9 517.67 305.16 517.51 304.42 517.34L304.58 516.61C305.32 516.77 306.06 516.93 306.79 517.09L306.64 517.82ZM312.53 518.94C311.8 518.81 311.06 518.68 310.33 518.54L310.47 517.8C311.2 517.94 311.93 518.07 312.66 518.2L312.53 518.94ZM318.37 519.86C317.64 519.76 316.92 519.65 316.19 519.54L316.3 518.8C317.02 518.91 317.75 519.02 318.47 519.12L318.37 519.86ZM324.44 520.59C323.68 520.51 322.92 520.43 322.16 520.34L322.25 519.6C323.01 519.69 323.76 519.77 324.52 519.85L324.44 520.6V520.59ZM330.46 521.1C329.71 521.05 328.96 521 328.21 520.94L328.27 520.19C329.02 520.25 329.76 520.3 330.51 520.35L330.46 521.1ZM336.39 521.37C335.65 521.35 334.92 521.33 334.18 521.29L334.21 520.54C334.95 520.57 335.68 520.6 336.41 520.62L336.39 521.37ZM342.44 521.41C341.67 521.41 340.91 521.42 340.14 521.42V520.67C340.91 520.67 341.67 520.67 342.43 520.66V521.41H342.44ZM348.5 521.21C347.75 521.25 346.99 521.29 346.24 521.32L346.21 520.57C346.96 520.54 347.71 520.51 348.46 520.47L348.5 521.22V521.21ZM354.44 520.76C353.7 520.83 352.97 520.9 352.23 520.96L352.17 520.21C352.91 520.15 353.64 520.09 354.37 520.01L354.44 520.76ZM360.42 520.05C359.66 520.16 358.9 520.26 358.13 520.35L358.04 519.61C358.8 519.52 359.56 519.42 360.31 519.31L360.41 520.05H360.42ZM366.41 519.07C365.67 519.21 364.93 519.34 364.18 519.47L364.05 518.73C364.79 518.6 365.53 518.47 366.27 518.33L366.41 519.07ZM372.25 517.84C371.53 518.01 370.81 518.17 370.08 518.33L369.92 517.6C370.64 517.44 371.36 517.28 372.08 517.11L372.25 517.84ZM378.07 516.32C377.33 516.53 376.6 516.73 375.85 516.93L375.66 516.21C376.4 516.01 377.13 515.81 377.86 515.6L378.07 516.32ZM383.86 514.52C383.15 514.76 382.43 515 381.71 515.23L381.48 514.52C382.19 514.29 382.91 514.06 383.61 513.82L383.85 514.53L383.86 514.52ZM389.46 512.47C388.77 512.74 388.08 513.01 387.38 513.27L387.12 512.57C387.81 512.31 388.5 512.05 389.18 511.78L389.45 512.48L389.46 512.47ZM395.03 510.12C394.34 510.43 393.64 510.74 392.94 511.04L392.64 510.35C393.34 510.05 394.03 509.75 394.72 509.43L395.03 510.11V510.12ZM400.46 507.5C399.79 507.84 399.12 508.18 398.45 508.51L398.12 507.84C398.79 507.51 399.46 507.18 400.12 506.84L400.46 507.51V507.5Z" fill="#0D1520"/>
<path opacity="0.8" d="M275 270.5C275 270.8 274.97 271.09 274.91 271.38C274.85 271.67 274.77 271.95 274.65 272.22C274.54 272.49 274.4 272.75 274.23 273C274.07 273.25 273.88 273.47 273.67 273.68C273.46 273.89 273.23 274.08 272.99 274.24C272.75 274.4 272.48 274.54 272.21 274.66C271.94 274.78 271.66 274.86 271.37 274.92C271.08 274.98 270.79 275.01 270.49 275.01C270.19 275.01 269.9 274.98 269.61 274.92C269.32 274.86 269.04 274.78 268.77 274.66C268.5 274.55 268.24 274.41 267.99 274.24C267.74 274.08 267.52 273.89 267.31 273.68C267.1 273.47 266.91 273.24 266.75 273C266.59 272.75 266.45 272.49 266.33 272.22C266.22 271.95 266.13 271.67 266.07 271.38C266.01 271.09 265.98 270.8 265.98 270.5C265.98 270.2 266.01 269.91 266.07 269.62C266.13 269.33 266.21 269.05 266.33 268.78C266.44 268.51 266.58 268.25 266.75 268C266.91 267.75 267.1 267.53 267.31 267.32C267.52 267.11 267.75 266.92 267.99 266.76C268.24 266.6 268.5 266.46 268.77 266.34C269.04 266.23 269.32 266.14 269.61 266.08C269.9 266.02 270.19 265.99 270.49 265.99C270.79 265.99 271.08 266.02 271.37 266.08C271.66 266.14 271.94 266.22 272.21 266.34C272.48 266.45 272.74 266.59 272.99 266.76C273.24 266.92 273.46 267.11 273.67 267.32C273.88 267.53 274.07 267.76 274.23 268C274.39 268.25 274.53 268.51 274.65 268.78C274.76 269.05 274.85 269.33 274.91 269.62C274.97 269.91 275 270.2 275 270.5Z" fill="#0FB8AC"/>
<path opacity="0.8" d="M513.5 248C513.5 248.4 513.42 248.78 513.27 249.15C513.12 249.52 512.9 249.84 512.62 250.12C512.34 250.4 512.01 250.62 511.65 250.77C511.29 250.92 510.9 251 510.5 251C510.1 251 509.72 250.92 509.35 250.77C508.98 250.62 508.66 250.4 508.38 250.12C508.1 249.84 507.88 249.51 507.73 249.15C507.58 248.78 507.5 248.4 507.5 248C507.5 247.6 507.58 247.22 507.73 246.85C507.88 246.48 508.1 246.16 508.38 245.88C508.66 245.6 508.99 245.38 509.35 245.23C509.72 245.08 510.1 245 510.5 245C510.9 245 511.28 245.08 511.65 245.23C512.02 245.38 512.34 245.6 512.62 245.88C512.9 246.16 513.12 246.49 513.27 246.85C513.42 247.22 513.5 247.6 513.5 248Z" fill="#5B4FD4"/>
<path opacity="0.43" d="M138.5 405.5C138.5 405.9 138.42 406.28 138.27 406.65C138.12 407.02 137.9 407.34 137.62 407.62C137.34 407.9 137.01 408.12 136.65 408.27C136.28 408.42 135.9 408.5 135.5 408.5C135.1 408.5 134.72 408.42 134.35 408.27C133.98 408.12 133.66 407.9 133.38 407.62C133.1 407.34 132.88 407.01 132.73 406.65C132.58 406.29 132.5 405.9 132.5 405.5C132.5 405.1 132.58 404.72 132.73 404.35C132.88 403.98 133.1 403.66 133.38 403.38C133.66 403.1 133.99 402.88 134.35 402.73C134.71 402.58 135.1 402.5 135.5 402.5C135.9 402.5 136.28 402.58 136.65 402.73C137.02 402.88 137.34 403.1 137.62 403.38C137.9 403.66 138.12 403.99 138.27 404.35C138.42 404.71 138.5 405.1 138.5 405.5Z" fill="#0D1520"/>
</g>
<defs>
<clipPath id="clip0_23386_750">
<rect width="541" height="541" fill="white"/>
</clipPath>
</defs>
</svg>
