<svg width="140" height="140" viewBox="0 0 140 140" fill="none" xmlns="http://www.w3.org/2000/svg">
<path d="M133.128 131.901C132.8 131.901 132.55 131.82 132.377 131.657C132.213 131.486 132.131 131.246 132.131 130.936V126.658H130.247V125.949H132.131V123.749H132.931V125.949H135V126.658H132.931V130.838C132.931 131.083 133.054 131.205 133.301 131.205H134.692V131.901H133.128Z" fill="#C8B493"/>
<path d="M124.241 131.901V125.949H125.004V127.037H125.164C125.304 126.719 125.538 126.438 125.866 126.194C126.203 125.949 126.687 125.827 127.319 125.827C127.762 125.827 128.164 125.921 128.526 126.108C128.887 126.287 129.174 126.56 129.388 126.927C129.601 127.285 129.708 127.738 129.708 128.284V131.901H128.92V128.333C128.92 127.697 128.76 127.241 128.439 126.964C128.119 126.678 127.688 126.536 127.147 126.536C126.539 126.536 126.034 126.735 125.632 127.135C125.23 127.534 125.029 128.129 125.029 128.919V131.901H124.241Z" fill="#C8B493"/>
<path d="M120.315 132.073C119.699 132.073 119.161 131.946 118.702 131.694C118.25 131.433 117.897 131.07 117.643 130.606C117.388 130.142 117.261 129.608 117.261 129.005V128.858C117.261 128.239 117.388 127.701 117.643 127.245C117.897 126.78 118.246 126.422 118.689 126.169C119.141 125.909 119.654 125.778 120.228 125.778C120.795 125.778 121.291 125.896 121.718 126.133C122.153 126.369 122.494 126.707 122.74 127.147C122.987 127.579 123.11 128.1 123.11 128.712V129.103H118.049C118.074 129.828 118.295 130.386 118.714 130.777C119.141 131.168 119.674 131.364 120.315 131.364C120.865 131.364 121.287 131.242 121.583 130.997C121.887 130.744 122.121 130.439 122.285 130.08L122.987 130.398C122.864 130.667 122.691 130.932 122.469 131.193C122.256 131.445 121.977 131.657 121.632 131.828C121.287 131.991 120.848 132.073 120.315 132.073ZM118.061 128.43H122.297C122.264 127.811 122.059 127.334 121.681 127C121.304 126.658 120.819 126.487 120.228 126.487C119.646 126.487 119.161 126.658 118.775 127C118.39 127.334 118.152 127.811 118.061 128.43Z" fill="#C8B493"/>
<path d="M107.613 131.901V125.949H108.377V126.731H108.537C108.66 126.511 108.853 126.308 109.116 126.12C109.387 125.925 109.768 125.827 110.261 125.827C110.745 125.827 111.135 125.937 111.431 126.157C111.726 126.377 111.94 126.638 112.071 126.939H112.231C112.371 126.638 112.584 126.377 112.871 126.157C113.167 125.937 113.581 125.827 114.115 125.827C114.517 125.827 114.87 125.913 115.174 126.084C115.478 126.247 115.716 126.479 115.888 126.78C116.069 127.082 116.159 127.432 116.159 127.831V131.901H115.359V127.917C115.359 127.493 115.231 127.159 114.977 126.915C114.722 126.662 114.369 126.536 113.918 126.536C113.45 126.536 113.06 126.687 112.748 126.988C112.436 127.29 112.28 127.725 112.28 128.296V131.901H111.48V127.917C111.48 127.493 111.353 127.159 111.098 126.915C110.852 126.662 110.499 126.536 110.039 126.536C109.571 126.536 109.181 126.687 108.869 126.988C108.557 127.29 108.401 127.725 108.401 128.296V131.901H107.613Z" fill="#C8B493"/>
<path d="M103.399 132.073C102.791 132.073 102.258 131.946 101.798 131.694C101.338 131.433 100.981 131.074 100.727 130.618C100.48 130.154 100.357 129.616 100.357 129.005V128.858C100.357 128.239 100.48 127.701 100.727 127.245C100.981 126.78 101.338 126.422 101.798 126.169C102.258 125.909 102.791 125.778 103.399 125.778C104.006 125.778 104.536 125.909 104.987 126.169C105.447 126.422 105.804 126.78 106.058 127.245C106.313 127.701 106.44 128.239 106.44 128.858V129.005C106.44 129.616 106.313 130.154 106.058 130.618C105.804 131.074 105.447 131.433 104.987 131.694C104.536 131.946 104.006 132.073 103.399 132.073ZM103.399 131.364C104.088 131.364 104.634 131.148 105.036 130.716C105.439 130.276 105.64 129.697 105.64 128.98V128.883C105.64 128.157 105.439 127.579 105.036 127.147C104.634 126.707 104.088 126.487 103.399 126.487C102.717 126.487 102.171 126.707 101.761 127.147C101.35 127.579 101.145 128.157 101.145 128.883V128.98C101.145 129.697 101.35 130.276 101.761 130.716C102.171 131.148 102.717 131.364 103.399 131.364Z" fill="#C8B493"/>
<path d="M90.6971 131.901V123.346H92.3348L94.8714 131.388H95.0191L97.5557 123.346H99.1934V131.901H98.3684V123.859H98.2207L95.6841 131.901H94.1941L91.6699 123.859H91.5098V131.901H90.6971Z" fill="#C8B493"/>
<path d="M84.7565 132.073C84.0259 132.073 83.402 131.902 82.8849 131.559C82.3759 131.217 82.064 130.655 81.9491 129.873L82.7248 129.726C82.7905 130.15 82.9218 130.484 83.1188 130.728C83.3159 130.964 83.5539 131.136 83.833 131.242C84.1203 131.347 84.4282 131.4 84.7565 131.4C85.2409 131.4 85.6267 131.303 85.914 131.107C86.2013 130.912 86.345 130.643 86.345 130.3C86.345 129.958 86.2054 129.718 85.9263 129.579C85.6554 129.441 85.2901 129.335 84.8304 129.262L84.2886 129.164C83.9028 129.099 83.5539 128.997 83.242 128.858C82.9382 128.72 82.6961 128.536 82.5155 128.308C82.3431 128.08 82.2569 127.795 82.2569 127.453C82.2569 126.931 82.458 126.524 82.8603 126.23C83.2707 125.929 83.8166 125.778 84.4979 125.778C85.1793 125.778 85.7252 125.933 86.1357 126.243C86.5543 126.544 86.8211 126.98 86.936 127.55L86.1849 127.722C86.111 127.265 85.9222 126.943 85.6185 126.756C85.3148 126.56 84.9412 126.463 84.4979 126.463C84.0547 126.463 83.7017 126.544 83.439 126.707C83.1763 126.87 83.045 127.114 83.045 127.44C83.045 127.758 83.164 127.99 83.402 128.137C83.6483 128.284 83.9767 128.394 84.3871 128.467L84.9412 128.565C85.3599 128.63 85.7334 128.728 86.0618 128.858C86.3901 128.98 86.6528 129.156 86.8498 129.384C87.0469 129.612 87.1454 129.917 87.1454 130.3C87.1454 130.863 86.9278 131.299 86.4927 131.608C86.0659 131.918 85.4871 132.073 84.7565 132.073Z" fill="#C8B493"/>
<path d="M77.8058 132.024C77.3707 132.024 76.9725 131.934 76.6114 131.755C76.2502 131.567 75.9587 131.294 75.7371 130.936C75.5237 130.569 75.4169 130.113 75.4169 129.567V125.949H76.2173V129.518C76.2173 130.145 76.3774 130.602 76.6975 130.887C77.0177 131.172 77.4487 131.315 77.9905 131.315C78.5979 131.315 79.0987 131.119 79.4927 130.728C79.895 130.329 80.0961 129.73 80.0961 128.931V125.949H80.8965V131.901H80.1207V130.826H79.9729C79.8252 131.135 79.583 131.413 79.2464 131.657C78.9181 131.901 78.4379 132.024 77.8058 132.024Z" fill="#C8B493"/>
<path d="M71.2883 132.073C70.6808 132.073 70.1472 131.946 69.6875 131.694C69.2278 131.433 68.8707 131.074 68.6162 130.618C68.37 130.154 68.2468 129.616 68.2468 129.005V128.858C68.2468 128.239 68.37 127.701 68.6162 127.245C68.8707 126.78 69.2278 126.422 69.6875 126.169C70.1472 125.909 70.6808 125.778 71.2883 125.778C71.8957 125.778 72.4252 125.909 72.8767 126.169C73.3364 126.422 73.6935 126.78 73.948 127.245C74.2025 127.701 74.3297 128.239 74.3297 128.858V129.005C74.3297 129.616 74.2025 130.154 73.948 130.618C73.6935 131.074 73.3364 131.433 72.8767 131.694C72.4252 131.946 71.8957 132.073 71.2883 132.073ZM71.2883 131.364C71.9778 131.364 72.5237 131.148 72.926 130.716C73.3282 130.276 73.5294 129.697 73.5294 128.98V128.883C73.5294 128.157 73.3282 127.579 72.926 127.147C72.5237 126.707 71.9778 126.487 71.2883 126.487C70.6069 126.487 70.061 126.707 69.6506 127.147C69.2401 127.579 69.0349 128.157 69.0349 128.883V128.98C69.0349 129.697 69.2401 130.276 69.6506 130.716C70.061 131.148 70.6069 131.364 71.2883 131.364Z" fill="#C8B493"/>
<path d="M66.2713 131.901V125.949H67.0594V131.901H66.2713ZM66.6653 124.947C66.4765 124.947 66.3165 124.886 66.1851 124.764C66.062 124.633 66.0004 124.474 66.0004 124.287C66.0004 124.091 66.062 123.933 66.1851 123.81C66.3165 123.688 66.4765 123.627 66.6653 123.627C66.8542 123.627 67.0101 123.688 67.1333 123.81C67.2646 123.933 67.3303 124.091 67.3303 124.287C67.3303 124.474 67.2646 124.633 67.1333 124.764C67.0101 124.886 66.8542 124.947 66.6653 124.947Z" fill="#C8B493"/>
<path d="M62.2729 132.073C61.6818 132.073 61.1565 131.95 60.6968 131.706C60.2453 131.453 59.8882 131.095 59.6255 130.63C59.3628 130.166 59.2315 129.62 59.2315 128.993V128.87C59.2315 128.227 59.3628 127.677 59.6255 127.22C59.8882 126.756 60.2453 126.402 60.6968 126.157C61.1565 125.904 61.6818 125.778 62.2729 125.778C62.8475 125.778 63.3319 125.888 63.7259 126.108C64.1281 126.32 64.4401 126.601 64.6617 126.952C64.8916 127.294 65.0393 127.66 65.105 128.052L64.3169 128.21C64.2759 127.893 64.1733 127.607 64.0091 127.355C63.8531 127.094 63.6315 126.886 63.3442 126.732C63.0569 126.569 62.6998 126.487 62.2729 126.487C61.846 126.487 61.4602 126.585 61.1154 126.78C60.7789 126.976 60.5121 127.253 60.315 127.612C60.118 127.97 60.0195 128.394 60.0195 128.883V128.98C60.0195 129.469 60.118 129.893 60.315 130.252C60.5121 130.602 60.7789 130.875 61.1154 131.07C61.4602 131.266 61.846 131.364 62.2729 131.364C62.9132 131.364 63.4016 131.201 63.7382 130.875C64.0748 130.541 64.2841 130.129 64.3662 129.64L65.1543 129.812C65.0722 130.194 64.9121 130.561 64.674 130.912C64.4442 131.254 64.1281 131.535 63.7259 131.755C63.3319 131.967 62.8475 132.073 62.2729 132.073Z" fill="#C8B493"/>
<path d="M57.2559 131.901V125.949H58.044V131.901H57.2559ZM57.65 124.947C57.4612 124.947 57.3011 124.886 57.1697 124.764C57.0466 124.633 56.985 124.474 56.985 124.287C56.985 124.091 57.0466 123.933 57.1697 123.81C57.3011 123.688 57.4612 123.627 57.65 123.627C57.8388 123.627 57.9947 123.688 58.1179 123.81C58.2492 123.933 58.3149 124.091 58.3149 124.287C58.3149 124.474 58.2492 124.633 58.1179 124.764C57.9947 124.886 57.8388 124.947 57.65 124.947Z" fill="#C8B493"/>
<path d="M49.9825 134.346V125.949H50.746V127.013H50.906C51.0702 126.695 51.3329 126.41 51.6941 126.157C52.0553 125.904 52.5601 125.778 53.2087 125.778C53.7422 125.778 54.2266 125.904 54.6617 126.157C55.0967 126.402 55.4415 126.752 55.696 127.208C55.9587 127.664 56.09 128.214 56.09 128.858V129.005C56.09 129.632 55.9628 130.178 55.7083 130.643C55.4538 131.099 55.109 131.453 54.674 131.706C54.2389 131.95 53.7505 132.073 53.2087 132.073C52.7818 132.073 52.4165 132.016 52.1128 131.902C51.809 131.787 51.5627 131.637 51.3739 131.449C51.1851 131.262 51.0374 131.074 50.9307 130.887H50.7706V134.346H49.9825ZM53.024 131.364C53.6889 131.364 54.2266 131.152 54.637 130.728C55.0557 130.304 55.265 129.722 55.265 128.98V128.883C55.265 128.133 55.0557 127.546 54.637 127.123C54.2266 126.699 53.6889 126.487 53.024 126.487C52.359 126.487 51.8172 126.699 51.3986 127.123C50.9799 127.546 50.7706 128.133 50.7706 128.883V128.98C50.7706 129.722 50.9799 130.304 51.3986 130.728C51.8172 131.152 52.359 131.364 53.024 131.364Z" fill="#C8B493"/>
<path d="M46.5289 132.073C45.7983 132.073 45.1744 131.902 44.6572 131.559C44.1483 131.217 43.8363 130.655 43.7214 129.873L44.4971 129.726C44.5628 130.15 44.6942 130.484 44.8912 130.728C45.0882 130.964 45.3263 131.136 45.6054 131.242C45.8927 131.347 46.2005 131.4 46.5289 131.4C47.0132 131.4 47.399 131.303 47.6864 131.107C47.9737 130.912 48.1173 130.643 48.1173 130.3C48.1173 129.958 47.9778 129.718 47.6987 129.579C47.4278 129.441 47.0625 129.335 46.6028 129.262L46.061 129.164C45.6751 129.099 45.3263 128.997 45.0143 128.858C44.7106 128.72 44.4684 128.536 44.2878 128.308C44.1154 128.08 44.0292 127.795 44.0292 127.453C44.0292 126.931 44.2304 126.524 44.6326 126.23C45.043 125.929 45.5889 125.778 46.2703 125.778C46.9516 125.778 47.4975 125.933 47.908 126.243C48.3267 126.544 48.5934 126.98 48.7084 127.55L47.9572 127.722C47.8834 127.265 47.6946 126.943 47.3908 126.756C47.0871 126.56 46.7136 126.463 46.2703 126.463C45.827 126.463 45.474 126.544 45.2113 126.707C44.9486 126.87 44.8173 127.114 44.8173 127.44C44.8173 127.758 44.9363 127.99 45.1744 128.137C45.4207 128.284 45.749 128.394 46.1595 128.467L46.7136 128.565C47.1322 128.63 47.5058 128.728 47.8341 128.858C48.1625 128.98 48.4252 129.156 48.6222 129.384C48.8192 129.612 48.9177 129.917 48.9177 130.3C48.9177 130.863 48.7002 131.299 48.2651 131.608C47.8382 131.918 47.2595 132.073 46.5289 132.073Z" fill="#C8B493"/>
<path d="M39.5781 132.024C39.143 132.024 38.7449 131.934 38.3837 131.755C38.0225 131.567 37.7311 131.294 37.5094 130.936C37.296 130.569 37.1893 130.113 37.1893 129.567V125.949H37.9897V129.518C37.9897 130.145 38.1497 130.602 38.4699 130.887C38.79 131.172 39.221 131.315 39.7628 131.315C40.3703 131.315 40.871 131.119 41.2651 130.728C41.6673 130.329 41.8684 129.73 41.8684 128.931V125.949H42.6688V131.901H41.8931V130.826H41.7453C41.5975 131.135 41.3554 131.413 41.0188 131.657C40.6904 131.901 40.2102 132.024 39.5781 132.024Z" fill="#C8B493"/>
<path d="M29.4677 131.901L32.2505 123.346H33.7528L36.5356 131.901H35.6491L34.9349 129.653H31.0807L30.3542 131.901H29.4677ZM31.3024 128.895H34.7009L33.0755 123.847H32.9278L31.3024 128.895Z" fill="#C8B493"/>
<path d="M23.9373 132.073C23.3216 132.073 22.7839 131.946 22.3242 131.694C21.8727 131.433 21.5198 131.07 21.2653 130.606C21.0108 130.142 20.8836 129.608 20.8836 129.005V128.858C20.8836 128.239 21.0108 127.701 21.2653 127.245C21.5198 126.78 21.8686 126.422 22.3119 126.169C22.7634 125.909 23.2765 125.778 23.8511 125.778C24.4175 125.778 24.9142 125.896 25.3411 126.133C25.7761 126.369 26.1168 126.707 26.3631 127.147C26.6093 127.579 26.7325 128.1 26.7325 128.712V129.103H21.6716C21.6962 129.828 21.9179 130.386 22.3365 130.777C22.7634 131.168 23.297 131.364 23.9373 131.364C24.4873 131.364 24.9101 131.242 25.2056 130.997C25.5093 130.744 25.7433 130.439 25.9075 130.08L26.6093 130.398C26.4862 130.667 26.3138 130.932 26.0922 131.193C25.8787 131.445 25.5996 131.657 25.2549 131.828C24.9101 131.991 24.4709 132.073 23.9373 132.073ZM21.6839 128.43H25.9198C25.887 127.811 25.6817 127.334 25.3041 127C24.9265 126.658 24.4422 126.487 23.8511 126.487C23.2683 126.487 22.7839 126.658 22.3981 127C22.0123 127.334 21.7742 127.811 21.6839 128.43Z" fill="#C8B493"/>
<path d="M14.3025 131.901V123.346H15.0905V126.976H15.2506C15.3409 126.78 15.4723 126.597 15.6447 126.426C15.8253 126.255 16.0551 126.116 16.3342 126.01C16.6133 125.896 16.9622 125.839 17.3809 125.839C17.8242 125.839 18.2264 125.933 18.5876 126.12C18.9488 126.3 19.2361 126.569 19.4495 126.927C19.663 127.286 19.7697 127.738 19.7697 128.284V131.901H18.9816V128.333C18.9816 127.697 18.8215 127.241 18.5014 126.964C18.1812 126.687 17.7503 126.548 17.2085 126.548C16.601 126.548 16.0961 126.748 15.6939 127.147C15.2917 127.538 15.0905 128.129 15.0905 128.919V131.901H14.3025Z" fill="#C8B493"/>
<path d="M9.85674 131.901V124.104H7V123.346H13.5508V124.104H10.6941V131.901H9.85674Z" fill="#C8B493"/>
<path d="M97.2754 90.2607C99.0441 90.2607 100.7 90.5895 102.242 91.2471C103.784 91.882 105.133 92.7897 106.289 93.9688C107.446 95.1252 108.353 96.4967 109.011 98.084C109.668 99.6713 109.997 101.418 109.997 103.322C109.997 105.227 109.668 106.985 109.011 108.595C108.353 110.182 107.446 111.565 106.289 112.744C105.133 113.901 103.784 114.808 102.242 115.466C100.7 116.101 99.0441 116.418 97.2754 116.418C95.5068 116.418 93.8514 116.101 92.3096 115.466C90.7676 114.808 89.4182 113.901 88.2617 112.744C87.1054 111.565 86.1986 110.182 85.541 108.595C84.8834 106.985 84.5547 105.227 84.5547 103.322C84.5547 101.418 84.8834 99.6713 85.541 98.084C86.1986 96.4742 87.1054 95.091 88.2617 93.9346C89.4182 92.7554 90.7676 91.8478 92.3096 91.2129C93.8514 90.578 95.5068 90.2608 97.2754 90.2607ZM122.75 90.2607C124.269 90.2607 125.63 90.5444 126.832 91.1113C128.056 91.6555 129.088 92.3812 129.927 93.2881C130.788 94.1951 131.401 95.2158 131.764 96.3496L129.247 97.3359C128.726 95.8621 127.897 94.7512 126.764 94.0029C125.63 93.232 124.303 92.8457 122.784 92.8457C121.809 92.8457 120.958 93.0163 120.232 93.3564C119.507 93.6739 118.94 94.1504 118.532 94.7852C118.147 95.3974 117.954 96.123 117.954 96.9619C117.954 97.9822 118.271 98.9005 118.906 99.7168C119.541 100.51 120.528 101.1 121.865 101.485L125.913 102.71C127.931 103.3 129.44 104.161 130.438 105.295C131.458 106.406 131.968 107.801 131.968 109.479C131.968 110.839 131.616 112.041 130.913 113.084C130.233 114.127 129.269 114.944 128.022 115.533C126.775 116.123 125.346 116.418 123.736 116.418C122.126 116.418 120.664 116.111 119.349 115.499C118.034 114.887 116.911 114.071 115.981 113.051C115.074 112.008 114.427 110.851 114.042 109.581L116.594 108.629C117.183 110.329 118.102 111.622 119.349 112.506C120.596 113.39 122.07 113.833 123.771 113.833C124.836 113.833 125.766 113.662 126.56 113.322C127.376 112.982 128 112.506 128.431 111.894C128.884 111.259 129.11 110.533 129.11 109.717C129.11 108.515 128.782 107.585 128.124 106.928C127.466 106.248 126.514 105.726 125.267 105.363L120.675 104.003C118.884 103.481 117.5 102.608 116.525 101.384C115.55 100.159 115.063 98.7533 115.062 97.166C115.062 95.8283 115.391 94.6377 116.049 93.5947C116.729 92.5516 117.648 91.7351 118.805 91.1455C119.961 90.556 121.276 90.2607 122.75 90.2607ZM12.8574 104.285L24.7959 90.6689H28.4014L19.0391 101.336L28.9795 116.01H25.5449L17.041 103.629L12.8574 108.391V116.01H10V90.6689H12.8574V104.285ZM51.3359 116.01H48.3086L46.166 109.887H34.9404L32.7637 116.01H29.7363L38.9541 90.6689H42.1182L51.3359 116.01ZM57.5342 116.01H54.6768V90.6689H57.5342V116.01ZM72.1875 90.6689C73.8654 90.6689 75.3281 90.9978 76.5752 91.6553C77.8224 92.2902 78.798 93.1978 79.501 94.377C80.2038 95.5333 80.5546 96.8937 80.5547 98.458C80.5547 100.227 80.0899 101.747 79.1602 103.017C78.2305 104.286 76.9604 105.182 75.3506 105.703L81.2695 116.01H77.9023L72.3467 106.18H66.3037V116.01H63.4463V90.6689H72.1875ZM97.2754 92.9482C95.8243 92.9483 94.4976 93.2205 93.2959 93.7646C92.0942 94.2862 91.0513 95.0348 90.167 96.0098C89.3054 96.9621 88.6248 98.073 88.126 99.3428C87.6498 100.59 87.4121 101.916 87.4121 103.322C87.4121 104.751 87.6498 106.1 88.126 107.37C88.6248 108.617 89.3054 109.728 90.167 110.703C91.0513 111.655 92.0942 112.404 93.2959 112.948C94.5203 113.47 95.8469 113.73 97.2754 113.73C98.7267 113.73 100.054 113.47 101.256 112.948C102.458 112.404 103.489 111.655 104.351 110.703C105.235 109.728 105.915 108.617 106.392 107.37C106.89 106.1 107.14 104.751 107.14 103.322C107.14 101.916 106.89 100.59 106.392 99.3428C105.915 98.073 105.235 96.9621 104.351 96.0098C103.489 95.0348 102.457 94.2862 101.256 93.7646C100.054 93.2204 98.7267 92.9482 97.2754 92.9482ZM35.8594 107.2H45.1787L40.5342 94.0137L35.8594 107.2ZM66.3037 103.492H72.3242C73.3898 103.492 74.3197 103.288 75.1133 102.88C75.9294 102.472 76.5526 101.894 76.9834 101.146C77.4369 100.375 77.664 99.4677 77.6641 98.4248C77.6641 97.3817 77.4369 96.4856 76.9834 95.7373C76.5526 94.9665 75.9294 94.3769 75.1133 93.9688C74.3197 93.5606 73.3898 93.3565 72.3242 93.3564H66.3037V103.492Z" fill="#7A6C53"/>
<path fill-rule="evenodd" clip-rule="evenodd" d="M70.2451 5.99963C89.6571 6.02803 105.385 21.7302 105.385 41.0953C105.385 60.458 89.6614 76.1575 70.2529 76.1901C70.1317 76.1899 70.0106 76.1866 69.8896 76.1852C69.8607 76.1856 69.8317 76.1858 69.8027 76.1862C68.4306 76.1713 67.0773 76.0809 65.7471 75.9137C65.5405 75.8828 65.3348 75.849 65.1299 75.8131C49.2073 73.476 36.7667 60.519 35.2666 44.3805C35.2326 44.4201 35.1989 44.4599 35.165 44.4996C35.0569 43.3795 35 42.2437 35 41.0953C35 39.9961 35.0532 38.909 35.1523 37.8356C35.186 37.8751 35.2191 37.9153 35.2529 37.9547C36.6928 21.7579 49.1596 8.73439 65.1084 6.38049C65.3204 6.34318 65.5333 6.30893 65.7471 6.27698C67.0914 6.108 68.4595 6.01685 69.8467 6.00354C69.8587 6.00371 69.8708 6.00433 69.8828 6.00452C70.0034 6.0031 70.1242 5.99983 70.2451 5.99963ZM46.8828 50.4821C46.8746 50.7314 46.8701 50.9817 46.8701 51.233C46.8701 62.3001 54.9144 71.5357 65.4756 73.4293C66.9169 73.6424 68.3883 73.761 69.8838 73.7799C82.166 73.5666 92.0996 63.5311 92.0996 51.233C92.0996 51.2301 92.0986 51.2272 92.0986 51.2242C85.5208 54.5621 78.0771 56.4459 70.1924 56.4459C61.7414 56.4459 53.7972 54.2815 46.8828 50.4821ZM102.983 43.6666C100.393 46.0491 97.5425 48.1524 94.4775 49.9303C94.4998 50.3618 94.5117 50.7961 94.5117 51.233C94.5117 58.4344 91.4481 64.9246 86.5518 69.4811C95.7183 64.2441 102.118 54.7201 102.983 43.6666ZM37.6465 43.8951C38.4235 52.9942 42.9504 61.0396 49.6777 66.485C46.4058 62.2664 44.457 56.9758 44.457 51.233C44.457 50.5186 44.4888 49.8112 44.5479 49.1119C42.0912 47.5772 39.7808 45.8315 37.6465 43.8951ZM69.4844 28.6803C60.6725 28.6804 53.0189 33.7391 49.2891 41.0953C53.0188 48.4519 60.6723 53.5103 69.4844 53.5104C78.2965 53.5104 85.9499 48.4518 89.6797 41.0953C85.9497 33.7392 78.2963 28.6803 69.4844 28.6803ZM90.875 43.9166C88.7358 47.4194 85.7554 50.3545 82.2148 52.4459C85.6299 51.5223 88.8883 50.2171 91.9404 48.5758C91.7498 46.9651 91.389 45.4061 90.875 43.9166ZM48.0928 43.9156C47.6576 45.1766 47.3314 46.4876 47.126 47.8375C49.7483 49.3608 52.5332 50.6353 55.4502 51.6227C52.4793 49.6115 49.9641 46.9804 48.0928 43.9156ZM94.1729 35.0582C93.8222 37.172 93.2057 39.196 92.3574 41.0953C93.2252 43.0383 93.851 45.1115 94.1973 47.278C97.0481 45.5301 99.6936 43.4812 102.09 41.1754C99.6868 38.8632 97.033 36.8092 94.1729 35.0582ZM44.9424 35.8649C42.5633 37.4303 40.3375 39.209 38.2939 41.1754C40.3298 43.1344 42.5461 44.9072 44.915 46.4684C45.2787 44.5944 45.8514 42.7947 46.6104 41.0953C45.8707 39.439 45.3071 37.6877 44.9424 35.8649ZM86.5518 12.7096C91.4483 17.2661 94.5117 23.757 94.5117 30.9586C94.5117 31.4474 94.4956 31.9328 94.4678 32.4147C97.5415 34.1966 100.4 36.3062 102.996 38.6959C102.183 27.5695 95.7658 17.9735 86.5518 12.7096ZM49.665 15.7213C42.9039 21.2013 38.3647 29.3084 37.6309 38.4703C39.7734 36.5248 42.0939 34.7716 44.5615 33.2311C44.4937 32.4826 44.457 31.7247 44.457 30.9586C44.457 25.2229 46.4003 19.9374 49.665 15.7213ZM54.9785 30.8942C52.2418 31.854 49.6227 33.064 47.1494 34.4987C47.3558 35.7973 47.6733 37.0594 48.0928 38.275C49.8644 35.3738 52.2125 32.8602 54.9785 30.8942ZM82.6934 30.0338C86.0242 32.1029 88.8328 34.9302 90.875 38.274C91.3729 36.8312 91.7289 35.3234 91.9238 33.7662C89.0192 32.2058 85.9286 30.9466 82.6934 30.0338ZM69.8838 8.41077C68.3851 8.4297 66.9104 8.54809 65.4658 8.76233C54.8988 10.6582 46.8701 19.8934 46.8701 30.9586C46.8701 31.2621 46.8767 31.5642 46.8887 31.8649C53.8015 28.0677 61.7441 25.9059 70.1924 25.9059C78.0761 25.9059 85.5195 27.7885 92.0967 31.1256C92.0971 31.07 92.0996 31.0143 92.0996 30.9586C92.0996 18.6605 82.166 8.62407 69.8838 8.41077Z" fill="#0FB8AC"/>
</svg>
